<svg xmlns="http://www.w3.org/2000/svg" width="346.18" height="362.714" viewBox="0 0 346.18 362.714">
  <defs>
    <style>
      .cls-1 {
        fill: #ececec;
      }

      .cls-2 {
        fill: none;
        stroke: #ececec;
        stroke-miterlimit: 10;
        stroke-width: 2px;
      }
    </style>
  </defs>
  <g id="Group_9" data-name="Group 9" transform="translate(-1114.344 -726.85)">
    <path id="Path_21" data-name="Path 21" class="cls-1" d="M207.418,399.373c-5.422-.224-10.844-.491-16.269-.624-.729-.018-1.475.64-2.358,1.053-.808-1.645-2.6-1.321-4.226-1.483-12.92-1.292-25.867-2.374-38.753-3.947-11.313-1.382-22.567-3.265-33.829-5.032-4.43-.7-8.806-1.73-13.225-2.5-1.841-.321-2.293-1.854-3.079-3.088-.587-.923-.91-2.009-1.43-2.981-5.358-10.013-8.048-20.5-5.673-31.883.594-2.85,1.261-5.686,1.966-8.51.544-2.184-.144-3.335-2.249-4.066-4.825-1.676-9.553-3.652-14.429-5.158a75.019,75.019,0,0,0-25.613-3.457,41.8,41.8,0,0,0-4.337.644c-.007-1.43,1.094-2.056,2.227-2.531a2.326,2.326,0,0,0,1.458-1.63,7.645,7.645,0,0,1,2.829-3.353c3.517-2.347,7.6-3.3,11.714-3.868,5.283-.727,10.6-1.182,15.972-1.762-.562-2.2-1.236-4.822-1.891-7.447a3.39,3.39,0,0,1-.2-1.424,5.737,5.737,0,0,1,.749-1.424,11.434,11.434,0,0,1,.673,1.29c1.31,3.495,2.675,6.971,3.849,10.511a21.043,21.043,0,0,1,.438,4.238c-.712-.675-1.375-1.05-1.644-1.613a2.163,2.163,0,0,0-2.474-1.308,96.531,96.531,0,0,0-24.138,4.811,34.049,34.049,0,0,0-3.526,1.688c6.42.553,12.65,1.089,18.875,1.624-.871-1.1-1.868-2.361-2.863-3.621l.348-.394a11.416,11.416,0,0,1,2.46,1.961,11.376,11.376,0,0,0,7.514,4.628,8.565,8.565,0,0,0,1.558.388c-1.577-2.814-4.478-4.592-6.072-7.434,3,2.351,6.175,4.435,8.315,7.79.7,1.093,2.36,1.57,3.58,2.327l.41-.489-7.806-9.477.263-.313c.281.121.654.164.83.373,2.926,3.483,5.747,7.06,8.783,10.442.994,1.107,2.539,1.72,3.832,2.559l.407-.388-8.543-11.07.181-.238a3.57,3.57,0,0,1,.911.55c2.378,2.691,4.811,5.338,7.04,8.148A9.471,9.471,0,0,1,91.27,335.3c.283,1.042,2.135,2.177,3.972,1.979l-8.908-13.929.32-.308a26.949,26.949,0,0,1,3.1,3.293c2.205,3.265,4.222,6.658,6.368,9.964a5.393,5.393,0,0,0,1.385,1.07l.322-.421-6.818-10.89.253-.316a6.722,6.722,0,0,1,1.363,1.1c2.068,2.851,4.239,5.646,6.045,8.658.87,1.453,1.7,1.785,3.358,1.268-2.027-3.205-4-6.332-5.981-9.458l.547-.363c2.532,2.972,5.521,5.609,6.845,9.828l8-.4a20.832,20.832,0,0,1-.108-2.4c.053-.754.648-1.836.341-2.179a22.871,22.871,0,0,0-3.3-2.638l-.427.449a19.351,19.351,0,0,1,1.682,2.158,4.271,4.271,0,0,1,.734,2.162.983.983,0,0,1-1.708.729c-6.773-6.7-15.236-10.593-23.738-14.434a16.146,16.146,0,0,1-1.953-.992,7.571,7.571,0,0,1-1.087-1.007,6.9,6.9,0,0,1,1.546-.557,3.747,3.747,0,0,1,1.419.264c1.341.4,2.668.845,4.009,1.242,3.087.911,6.177,1.8,9.266,2.7l.476-.386-2.641-1.259.631-.726c2.436.245,3.9,2.291,5.577,3.224,2.249-1.122,4.205.927,5.957.088l-2.2-6.968c-.154-2.393-.306-4.784-.464-7.256h-4.507c.2,2.2,1.225,3.814,3.523,5.795a9.632,9.632,0,0,1,1.151,1.454L101.9,314.2c.442,1.4.905,2.767,1.285,4.151a4.2,4.2,0,0,1-.053,1.279c-.419-.222-1.1-.353-1.213-.68-.7-2.054-1.363-4.131-1.875-6.24-1.341-5.537-1.1-4.31-5.966-4.537l4.991,6.286c-3.557.569-5.1-1.911-6.891-4.077-.366-.444-1.081-.6-1.9-1.029l-.06-1.331c-3.423-.829-6.719-1.624-10.011-2.428A4.936,4.936,0,0,1,79,305.2a3.349,3.349,0,0,1-.7-.721c.31-.233.627-.676.926-.664,1.516.063,3.026.279,4.542.38q10.12.668,20.245,1.3a1.4,1.4,0,0,0,.428-.087c-1.19-1.556-2.45-3.063-3.529-4.692a3.974,3.974,0,0,1-.464-2.2c.09-3.018-.019-6.021-1.427-8.747a8.143,8.143,0,0,0-2.68-3.353c-3.022-1.743-3.845-4.435-3.851-7.537-.012-5.931,2.24-11.157,5.313-16.09a92.3,92.3,0,0,1,15.039-18.1,41.46,41.46,0,0,0,3.987-5.14c-1.989-1.737-5.113-1.174-6.224-3.7-.97-2.205-1.639-4.542-2.5-6.994a12.945,12.945,0,0,0-7.265,6.47,48.727,48.727,0,0,0-2.877,8.065c-1.859,7.11-4.734,13.6-10.535,18.413a32.388,32.388,0,0,1-19.161,7.755c-4.069.24-5.789-.978-6.984-4.8H57.438c6.084-8.767,7.31-18.53,9.36-28.113l-2.437-.672-.032-.555c2.1-.277,4.2-.641,6.307-.815,6.435-.528,12.876-.974,19.313-1.476a8.178,8.178,0,0,0,1.78-.4c2.137-.668,2.778-1.558,2.592-3.769a22.416,22.416,0,0,0-.571-3.607c-1.294-5.128-.755-9.6,4.347-12.469-2.706-3.707-2.458-7.771-1.941-11.875l.61-.131c.272,1.46.519,2.925.823,4.378.419,2.006.88,4,1.324,6,.22,1,.787,1.127,1.749.937,2.924-.578,5.9-.9,8.8-1.578,2.653-.618,5.24-1.529,7.836-2.374,4.385-1.426,8.754-2.9,13.328-4.422-2.764-4.287-4.158-8.959-5.276-13.727l.707-.292c1.946,4.5,3.891,9,5.911,13.668l7.651-2.168a52.264,52.264,0,0,1-1.855-6.259,24.826,24.826,0,0,1-.041-6.551c2.294,3.735,1.691,8.4,4.138,12.3,19.205-5.426,39.1-6.712,59.24-7.181V182.713l.747-.015c.893,3.516.5,7.094.055,10.507,6.092,0,12.121.027,18.149-.04a5.874,5.874,0,0,0,1.981-.858c1.3,1.617,5.626,1.023,6.48-1a2.1,2.1,0,0,0-.165-1.2,26.238,26.238,0,0,1-1.006-4.162c2.045,1.916,2.7,4.373,2.862,7.17l38.549,1.224c.573-1.725-.054-2.748-1.714-3.831-7.644-4.988-15.167-10.162-22.711-15.3a8.124,8.124,0,0,1-2.074-2.185c4.9,1.934,9.013,5.124,13.305,8.015,4.341,2.924,8.682,5.845,13.215,8.9.226-1.268.43-2.409.634-3.551l.443-.084a19.116,19.116,0,0,1,.462,3.332,2.5,2.5,0,0,0,1.243,2.388c1.1.748,2.013,1.91,3.208,2.359a26.433,26.433,0,0,0,4.981.879c.111-1.74.26-3.124.249-4.507,0-.356-.441-.81-.795-1.047q-12.762-8.529-25.558-17.006c-.335-.223-.83-.22-1.142-.463-.613-.477-1.15-1.052-1.719-1.586l.448-.648a15,15,0,0,1,2.556,1.029c6.487,4.094,12.942,8.238,19.408,12.365,2.531,1.615,5.215,3.035,7.566,4.88,2.909,2.28,5.539,4.914,8.3,7.382a1.5,1.5,0,0,0,.763.379c1.259.141,2.524.231,3.982.356,0-1.97.053-3.849-.04-5.721a1.94,1.94,0,0,0-.845-1.238q-14.817-10.068-29.7-20.046c-.876-.585-1.688-2.066-3.2-.932-.083.062-.913-.69-1.213-1.177-.168-.272-.08-1.036.106-1.122a1.955,1.955,0,0,1,1.487-.132,86.222,86.222,0,0,1,8.489,4.584c7.67,5.086,15.218,10.353,22.815,15.547.551.376,1.117.729,2.007,1.307V183.03l.717-.137a17.742,17.742,0,0,1,.825,3.022,5.177,5.177,0,0,0,2.884,4.587,74.142,74.142,0,0,1,6.319,4,9.333,9.333,0,0,1,1.184,1.1l-.218.462-3.6-.383c-.151-.416-.177-1.016-.464-1.195-1.795-1.107-3.648-2.12-5.654-3.261-.22,1.859-.417,3.518-.626,5.283,3.338.529,6.6.918,9.8,1.582,5.543,1.147,11.049,2.464,16.573,3.7.413.093.837.136,1.257.2,2.81.785,5.614,1.594,8.439,2.327a1.4,1.4,0,0,0,1.2-.368c2.192-2.818,4.326-5.684,6.558-8.647l-10.086-7.55a35.245,35.245,0,0,1-.64,4.73,2.088,2.088,0,0,0,.876,2.573c1.805,1.451,3.456,3.1,5.17,4.659l-.48.6c-2.134-1.574-4.269-3.148-6.434-4.743-1.515,4.388-1.515,4.388-.8,6.024l-3.387.375.862-1.376-10.763-7.088c-.828,1.472.122,3.494-1.728,4.748a7.71,7.71,0,0,1-.1-1.642c.622-3.238-.812-5.045-3.565-6.8-8.365-5.347-16.488-11.074-24.692-16.672a15.23,15.23,0,0,1-1.589-1.434l.389-.644a11.6,11.6,0,0,1,2.358.879q10.606,6.813,21.154,13.715c1.981,1.293,3.906,2.674,6.072,4.163.205-1.875.468-3.522.512-5.176.013-.455-.536-1.05-.979-1.374q-7.157-5.228-14.38-10.365c-.543-.386-1.373-.386-1.882-.8a7.988,7.988,0,0,1-1.271-1.737c.58.006,1.314-.217,1.718.053,6.266,4.2,12.556,8.367,18.7,12.74,4.208,3,8.2,6.294,12.566,9.675.4-1.975.81-3.72,1.074-5.485.047-.308-.441-.8-.794-1.05q-12.89-9.157-25.825-18.256c-1.151-.808-2.583-1.224-3.708-2.059-.713-.529-2.174-1.052-1.339-2.311.205-.31,1.819-.011,2.551.414a85.3,85.3,0,0,1,7.712,4.889c10.412,7.647,20.761,15.378,31.119,23.1.972.725,1.846,1.582,2.835,2.437l2.845-2.331c-4.875-3.988-9.549-7.994-14.415-11.752-8.147-6.291-16.423-12.415-24.617-18.647a5.934,5.934,0,0,1-1.057-1.614c.658.073,1.475-.08,1.95.254,6.281,4.4,12.521,8.862,18.754,13.331.939.673,1.777,1.488,2.691,2.2,1.419,1.1,3.1,1.7,4.233,3.378,1.081,1.61,2.974,2.667,4.48,4,1.461,1.294,2.851,2.668,4.328,3.94,1.529,1.318,3.125,2.556,4.933,4.025l4.762-2.7a31.368,31.368,0,0,0-1.3-4.606c-7.813-17.387-20.092-30.318-37.825-37.815-11.726-4.957-24.039-7.627-36.583-9.191a474.482,474.482,0,0,0-60.591-3.645c-20.055.081-39.859,2.925-59.425,7.342-3.388.764-6.89,1.154-10.171,2.227-5.48,1.791-10.9,3.822-16.207,6.066A99.466,99.466,0,0,0,103.9,161.984c-9.387,7.361-14.5,17.04-16.161,28.72-.776,5.46-1.19,10.9-.063,16.366.587,2.845,1.44,5.535,3.667,7.584A1.739,1.739,0,0,1,91.815,216a12.438,12.438,0,0,1-1.739-.954c-3.446-2.655-4.677-6.525-5.213-10.537a55.661,55.661,0,0,1,3.8-29.023c3.056-7.414,8.583-12.8,14.847-17.507,7.734-5.814,16.644-9.367,25.475-13.041,5.85-2.435,11.675-4.982,17.676-6.986a101.6,101.6,0,0,1,13.856-3.229c17.96-3.292,36.047-5.525,54.342-5.206,8.956.156,17.91.74,26.85,1.349,8.872.6,17.754,1.254,26.583,2.292,15.347,1.8,30.485,4.586,44.729,10.99,16.52,7.427,28.005,19.741,35.318,36.138,2.035,4.563,2.227,5.456,2.069,7.382,3.286-.494,6.643-1.524,9.944-1.37,5.018.232,10,1.278,14.992,1.994,2.292.328,4.586.674,6.381,2.358-.057,1.293-.795,1.165-1.756.965-2.345-.49-4.713-.866-7.072-1.288-3.685-.463-7.358-1.1-11.056-1.34a21.148,21.148,0,0,0-10.665,2.1,33.1,33.1,0,0,0-8.912,6.169,94.462,94.462,0,0,0-7.088,8.2,51.675,51.675,0,0,0,7.328,1.958c2.164.258,3.47,1.483,4.815,2.841,2.385,2.409,4.733,4.852,7.1,7.281l.427-.192a10.4,10.4,0,0,0-1.175-2.529c-1.3-1.535-2.775-2.913-4.171-4.361-1.355-1.406-2.722-2.8-4.028-4.249-.192-.212-.076-.7-.1-1.062a2.651,2.651,0,0,1,.954.161,7.02,7.02,0,0,1,1.1.955q3.424,3.25,6.842,6.507l.464-.252a9.893,9.893,0,0,0-1.195-2.539c-2.227-2.506-4.6-4.886-6.873-7.349a8.685,8.685,0,0,1-.938-1.586l.545-.374L354.405,209l.742-.424a11.229,11.229,0,0,0-1.038-2.718c-1.131-1.583-2.495-3-3.7-4.526a6.992,6.992,0,0,1-.707-1.56l.674-.481,5.45,5.879c.51-.924.946-1.713,1.383-2.5l.58-.712-5-4.028c2.559.149,3.706,2.247,5.49,3.6l1.975-1.817-5.4-4.715.3-.406a7.4,7.4,0,0,1,1.388.781c.96.845,1.866,1.754,2.771,2.66,1.707,1.707,1.7,1.713,3.564.1-2.777-3.167-2.777-3.167-2.6-3.988,2.355.231,2.7,4.735,6.238,2.844l-3.565-4.266.613-.614a29.636,29.636,0,0,1,3.349,3.218,2.419,2.419,0,0,0,3.484.761l-2.912-3.612c2.836.021,3.181,3.769,6.47,3.528l-4.067-4.328c2.23-.022,3.329,1.518,4.365,2.91a3.372,3.372,0,0,0,3.946,1.4c-.6-.673-1.077-1.19-1.532-1.729-.891-1.055-1.769-2.121-2.653-3.183a7.9,7.9,0,0,1,2.057.83c1.505,1.176,2.905,2.485,4.331,3.728a15.579,15.579,0,0,1,.941-2.524c.238-.437.92-.632,1.4-.937a10.909,10.909,0,0,1-.007,3.134,57.529,57.529,0,0,1-2.354,6.14c-.166.389-.766.594-1.164.884a12.218,12.218,0,0,1-.821-1.434,1.747,1.747,0,0,1,.013-.905c.217-1.21-.312-1.721-1.495-1.658-4.633.249-9.182.9-13.391,3-.508.252-.791.957-1.278,1.579-1.574-.088-2.263.666-1.893,2.583-1.919-.345-2.229,1.239-2.431,2.4a46.487,46.487,0,0,0-.517,6.607c-.13,4.128,1.127,8.462-1.559,12.2a13.741,13.741,0,0,1-3.059,2.427c-.621,3.586-.864,7.413-2.018,10.94-1.087,3.32-3.083,6.354-4.789,9.454-.519.945-.758,1.707-.094,2.625a44.712,44.712,0,0,1,3.613,5.19c.619,1.181.589,2.7.916,4.415-1.981-.377-3.585-.926-4.979.254a17.021,17.021,0,0,0-1.8-2.414c-2.016-1.9-4.128-3.7-6.277-5.609,9.362-10.083,13.177-21.667,9.476-35.569l2.6.435c2.433,2.36,2.161,5.714,3.041,8.911a16.559,16.559,0,0,0,1.095-1.352c1.4-2.206,1.351-2.6-.481-4.484l-3.3-3.393-3.4-3.6a33.012,33.012,0,0,0,.091,4.385,31.112,31.112,0,0,1-4.83,17,2.548,2.548,0,0,0-.023,3.116,32.15,32.15,0,0,1,1.552,3.038,2.106,2.106,0,0,1-1.392-.735c-1.558-1.721-2.484-1.752-4.161-.182-1.067,1-2.232,1.9-3.253,2.94a2.376,2.376,0,0,0-.678,1.607c.11,1.511.422,3.006.655,4.508l-.517.169q-.825-2.253-1.646-4.5l-7.521,4.212c.3,1.165.586,2.274.871,3.382l-.6.264-1.508-2.816-16.81,3.163c.1,1.023.226,2.212.348,3.4l-.571.465c-.513-3.477-2.034-5.437-5.671-4.236.081.592.174,1.278.267,1.965l-.38.266c-.443-.552-.873-1.114-1.332-1.653-.366-.429-.7-1.093-1.158-1.2-2.234-.519-4.505-.886-6.736-1.3l-.567,2.143-.471.025c-.195-.592-.358-1.2-.592-1.773-.168-.413-.339-1.009-.665-1.143-2.576-1.053-5.188-2.014-7.919-3.054l.419,1.419-.413.267c-.659-.727-1.325-1.448-1.974-2.183-.342-.388-.576-.947-1-1.179a42.845,42.845,0,0,1-13.809-12.059,1.7,1.7,0,0,0-1.279-.686c-1.355.251-2.675.7-4.216,1.123,2.075,2.952,3.869,5.951,6.11,8.565a43.382,43.382,0,0,0,7.184,6.791,49.2,49.2,0,0,0,14.287,7.22c6.564,2.084,13.072,4.165,19.991,4.879,4.385.453,8.7.8,13.049-.039,6.424-1.246,12.362-3.574,17.625-8.3,2.062,2.206,4.052,4.349,6.062,6.473.574.607,1.209,1.157,1.816,1.733l-1.436,1.821v2.355l-1.723-.511-.849,1.06-7.224-7.457-.592.59,6.991,7.658-2.956,4.212c.693.322,1.263.564,1.811.844,1.857.95,3.773,1.805,5.539,2.9,1.592.987,1.838,2.786,2.108,4.489a8.156,8.156,0,0,1-1.068,7.593c-2.719-4.524-12.325-12.905-15.407-12.879l5.088,4.056-.244.212-8.042-4.632-.348.549,18.645,13-1.684,3.049a18.844,18.844,0,0,1-4.749,3.95c-1.686,1.045-2.694,3.184-3.98,4.816.159.191.224.341.294.343q9.378.4,18.756.778c.485.019.972-.019,1.458-.021s.959.008,1.438.014a4.733,4.733,0,0,1-.166,1.889,17.083,17.083,0,0,1-2.644,3.807q-6.354,6.2-12.936,12.158c-1.128,1.019-2.644,1.606-3.986,2.664,8.1,2.042,16.408,2.709,24.656,3.71l.288.673c-.993,1.191-1.9,2.47-3,3.553-1.651,1.63-3.416,3.145-5.184,4.651-.28.238-.827.163-1.25.233-.623-1.329.166-2.206,1.006-3.038,1.489-1.472,3-2.92,4.672-4.537l-19.884-2.751c.875,2.127,1.6,3.906,2.336,5.686l-1.077.824c-.22-.553-.429-1.114-.666-1.661-.551-1.277-1.08-2.565-1.694-3.812-.241-.492-.611-1.154-1.049-1.276a29,29,0,0,0-3.76-.547c.567,1.108,1,1.9,1.381,2.715.363.788.667,1.6,1,2.406l-.827.406c-.784-1.359-1.64-2.682-2.334-4.086-.973-1.966-1.128-2.107-3.362-1.855l3.247,6.077-.557.419a5.412,5.412,0,0,1-1.165-1.048,37.2,37.2,0,0,1-2.483-4.451c-.647-1.485-1.669-1.886-3.264-1.716.77,1.63,1.5,3.179,2.233,4.728l-.659.346c-.8-1.367-1.59-2.741-2.406-4.1-.3-.5-.6-1.319-1.018-1.4-2.409-.45-4.852-.722-7.619-1.1,3.287,2.633,6.176,5.021,9.155,7.291a8.114,8.114,0,0,0,3.171,1.593c5.009.984,10.052,1.793,15.081,2.676,2.753.484,5.514.932,8.245,1.518,1.215.261,2.159.959,1.632,2.489a28.981,28.981,0,0,1,1.245,5.208c.254,4.526.393,9.073.287,13.6a45.6,45.6,0,0,1-3.633,16.547,25.949,25.949,0,0,1-3.167,5.582,37.942,37.942,0,0,1-12.075,10.287A19.683,19.683,0,0,1,332,388.711c-2.886,1.09-5.8,2.117-8.665,3.258-.535.213-.907.841-1.352,1.279-.4.392-.788.787-1.182,1.181l-1.026-1.7c-1.934.258-4.215.567-6.5.868-3.188.42-6.374.852-9.565,1.243q-6.406.784-12.818,1.505c-1.671.186-3.351.292-5.028.4-3.616.233-7.233.441-10.849.666-4.025.249-8.049.519-12.075.754-4.7.275-9.4.607-14.11.761-6.728.222-13.462.3-20.194.445ZM267.809,197.3l-7.341-.489-.079.339,6.789,3.6.142-.348-2.121-2.266,2.634-.132c1.85-1.288,2.39,1.107,3.825,1.453-.292-.774-.525-1.393-.814-2.155Zm33.707,19.653c-1.669-1.884-4.331-2.669-5.648-5.025l.073.869-14.276,10.9.14.589c2.891-1.034,5.711-2.478,8.9-1.8l.019-.546-2.606-.6c.293-1.41,1.15-1.982,2.481-1.491,1.529.564,3,1.294,4.484,1.967.483.218.945.482,1.417.726l.145-.274-4.093-6.021.749-.557,3.637,4.2.222-.139-2.706-4.665.544-.3c.556.7,1.148,1.366,1.659,2.093,2.546,3.627,5.048,7.286,7.621,10.893a18.563,18.563,0,0,0,2.021,2.079l.385-.328c-3.062-4.44-6.342-8.754-8.215-13.891a5.075,5.075,0,0,1,1.428,1.529c3.264,4.823,6.516,9.654,9.8,14.464a4.8,4.8,0,0,0,1.073.865c-2.487-4.319-5.17-8.354-7.8-12.42a9.574,9.574,0,0,1-.73-1.951,13.785,13.785,0,0,1,1.475,1.524c3.1,4.34,6.169,8.7,9.342,13.195l1.5-1.725a6.6,6.6,0,0,1-3.365-4.306c-.335-1.054-1.3-1.895-1.848-2.9a6.893,6.893,0,0,1-.353-1.914ZM267.091,347.313l2.775,2.1.353-.258-1.625-2.938c-.205-.358-.327-.828-.63-1.055-2.6-1.957-5.233-3.868-7.856-5.793l-1.148-.81.431-.732,6.194,3.259a42.928,42.928,0,0,0-5.461-6.776,13,13,0,0,0-10.538-3.691,47.775,47.775,0,0,0-5.782.828,11.921,11.921,0,0,0-2.531,1.164l.162.422-1.994-.917v2.76l-1.4-2.224-2.621.815c1.3,2.285,1.307,2.3.542,3.176-2.233-3.7-1.876-3.048-3.9-2.266.482.964.97,1.938,1.457,2.911l-.664.437A21.723,21.723,0,0,0,231.234,336c-.505-.442-1.129-1.062-1.7-1.06a49.873,49.873,0,0,0-5.019.5c.686,1.122,1.328,2.176,2.167,3.548-.72-.189-1.177-.182-1.453-.4a38.307,38.307,0,0,1-3.994-3.4c-1.55-1.632-2.879-3.471-4.345-5.185a3.943,3.943,0,0,0-4.718-1.4c-1.706.634-3.444,1.178-5.16,1.788a60.476,60.476,0,0,1-6.165,2.2c-5.341,1.267-10.731,2.331-16.175,3.492l.566,1.336c-1.346.344-2.866-1.673-3.99.916.571-3.393-2.117-3.5-3.734-4.5a46.407,46.407,0,0,0-5.209-2.646c-7.909-3.611-16.337-5.578-24.725-7.637-2.727-.668-5.556-.918-8.434-1.374-.113,1.879-.193,3.258-.281,4.734,2.363.231,4.743.3,7.051.736,2.244.428,4.8.154,7.043,2.443-1.3.066-2.054.175-2.8.131-3.709-.213-7.415-.516-11.127-.666a7.826,7.826,0,0,0-2.407.805c2.4,2.627,2.406,2.589,5.293,2.639a71.473,71.473,0,0,1,25.982,5.361c4.614,1.884,9.283,3.639,13.96,5.362a2.954,2.954,0,0,0,1.918-.326c2.208-.969,4.294-2.326,6.586-2.958a30.834,30.834,0,0,1,6.636-.564q10.667-.507,21.338-.918a4.959,4.959,0,0,1,1.725.648l-.125.777a27.456,27.456,0,0,1-3.814.421c-1.744-.039-2.525.518-2.545,2.388a28.7,28.7,0,0,1-.758,4.576c-1.209-1.288-1.209-1.288-.428-6.58h-4.239c0,1.9.032,3.706-.028,5.514-.011.334-.386.655-.593.982-.278-.336-.675-.634-.8-1.02a3.835,3.835,0,0,1-.042-1.453c.116-1.345.268-2.686.368-3.661-4.052,0-7.888.036-11.722-.026-.947-.015-2.047-.761-2.8-.468-2.945,1.14-6.094,1.963-8.288,4.565a2.759,2.759,0,0,1-2.15.626,17.945,17.945,0,0,1-3.633-1.007c-4.993-1.754-9.929-3.687-14.972-5.28-4.444-1.4-9-2.442-13.864-3.735.875,3.414,2.288,6.1,1.787,9.176-1.07-2.246-1.76-4.6-2.618-6.893-.3-.8-.937-1.98-1.559-2.076-2.437-.373-4.93-.382-7.184-.513,0,2.133.042,4.014-.028,5.892a4.9,4.9,0,0,1-.585,1.488c-.393-.509-1.083-1-1.124-1.531-.139-1.862-.054-3.74-.054-5.674h-3.59l.975,1.879-18.352.672v4.5l-.674.11c-.361-1.435-.723-2.87-1.117-4.43l-6.341.283V347c-2.285-2.3-1.557-5.022-1.375-7.7h-5.617l-3.127.349-6.905.428c-.216,1.684-.408,3.19-.6,4.7-1.061,8.157-1.616,16.331,1.378,24.2a132.187,132.187,0,0,0,5.927,12.895,4.378,4.378,0,0,0,4.94,2.661c-.176-.515-.3-.985-.491-1.424-1.222-2.8-2.5-5.575-3.642-8.4-.168-.414.278-1.075.44-1.621l.482.1-1.7-14.015.631-.254a4.627,4.627,0,0,1,.961,1.167,14.657,14.657,0,0,1,.416,2.137c1.449,7.131,2.946,14.253,4.325,21.4.322,1.674,1.238,1.82,2.654,1.648-.08-.451-.121-.807-.208-1.149a86.732,86.732,0,0,1-3.075-21.965,11.407,11.407,0,0,1,.388-2.055l.669.018a5.854,5.854,0,0,1,.359,1.394c.059,7.713,1.657,15.188,3.387,22.652a2.184,2.184,0,0,0,2.121,2l1.539.315,2.929.244c-.992-5.42-2.124-10.76-2.91-16.15-.776-5.328-1.2-10.708-1.78-16.065l.563-.136a22.388,22.388,0,0,1,1.1,3.27c1.624,9.143,3.189,18.3,4.766,27.447.382,2.222,1.169,2.7,3.617,2.179-2.462-8.144-5.4-31.012-4.142-33.493.22.757.431,1.3.538,1.873.916,4.874,1.865,9.741,2.689,14.631.32,1.906.218,3.884.531,5.793.543,3.3,1.288,6.562,1.891,9.85.318,1.734,1.263,2.45,3.115,2.238a106.6,106.6,0,0,1-3.437-29.6l.648-.08,4.2,30.038,6.142.85a265.554,265.554,0,0,1-4.964-36.339,250.829,250.829,0,0,1,6.63,36.7l36.594,4.215a81.013,81.013,0,0,1-1.353-9.283c-.189-5.968,0-11.949.008-17.924.013-6.423,0-12.848,0-19.272l.336-.318c.386.517,1.038,1,1.111,1.558a71.75,71.75,0,0,1,.737,7.8c.193,8.657.224,17.317.4,25.973.08,3.813.374,7.62.577,11.556l8.16.586c-1.335-7.525-1.97-28.209-.675-30.516.51,6.019,1,11.565,1.441,17.115.309,3.947.5,7.9.848,11.847a2.275,2.275,0,0,0,1.083,1.708,11.806,11.806,0,0,0,3.145.08l-1.074-5.61.334-.121,1.178,1.693c.24-9.957.788-19.56.116-29.19,2.163,5.315,1.658,10.954,1.791,16.494.136,5.643.03,11.291.03,17.016l6.443.416c-.128-1.307-.275-2.383-.331-3.463-.231-4.442-.574-8.884-.612-13.328-.052-6.085.115-12.172.257-18.258a5.693,5.693,0,0,1,.76-1.841l.458.212a14.394,14.394,0,0,0-.13,1.733q.586,13.6,1.229,27.207a4.59,4.59,0,0,0,.681,1.634c.784,1.564,1.555,3.121.6,5.2-.477-.662-.788-1.094-1.3-1.8-.053,1.054-.09,1.8-.145,2.89H225.3c-.055-.546-.141-1.134-.169-1.725-.087-1.8-.258-3.611-.17-5.407.034-.7.955-1.348.989-2.045.39-7.764.678-15.536,1.033-23.3.019-.415.4-.815.613-1.22l.74.163c.907,11.242-.3,22.448-1.185,33.684h5.839c.123-10.821,2.862-21.305,2.1-32.574.591.706,1.057,1.023,1.156,1.43a10.69,10.69,0,0,1,.427,3.054c-.462,8.143-.987,16.283-1.51,24.424-.076,1.183-.247,2.359-.435,4.094L293,393.52l3.115-19.371.56.083c.408,6.3-1,12.428-2.1,18.84l11.754-1.095c.124-2.379.15-4.573.367-6.748q1.169-11.729,2.48-23.443c.108-.945.85-2.648,1.1-2.612,1.688.237,1.127,1.767,1.06,2.777-.648,9.838-1.381,19.671-2.091,29.524,2.714.367,3.111.034,3.158-2.9a25.816,25.816,0,0,1,.123-2.923q1.616-12.319,3.3-24.629a31.31,31.31,0,0,1,.882-3.487l.8.039a6.663,6.663,0,0,1,.4,1.9c-.486,5.338-.977,10.675-1.591,16-.6,5.174-1.344,10.328-2.035,15.579,1.613-.2,3.232-.416,4.857-.584.966-.1,1.355-.535,1.328-1.542a48.1,48.1,0,0,1,.072-5.487q1.2-13.653,2.539-27.293c.039-.4.538-.756.823-1.133.335.368.849.688.964,1.115a6.955,6.955,0,0,1,.129,2.182c-.42,6.873-.835,13.747-1.313,20.617-.249,3.569-.619,7.128-.947,10.838,3.253-.26,6.284-.729,8.658-2.984a3.983,3.983,0,0,0,1.17-2.208c.288-2.355.23-4.753.539-7.1,1.121-8.511,2.327-17.011,3.546-25.509.069-.483.53-.911.808-1.365.245.524.717,1.057.7,1.57-.123,2.8-.294,5.6-.586,8.381-.8,7.659-1.672,15.31-2.522,23.029.278-.067.631-.049.837-.215,4.671-3.74,8.754-7.966,11.069-13.617a2.928,2.928,0,0,0,.209-1.4c-.277-2.227-.7-4.439-.905-6.671-.145-1.57-.028-3.163-.028-4.746l.644-.061,1.363,8.779a6.981,6.981,0,0,0,.45-.858,74.755,74.755,0,0,0,2.116-25.211,8.68,8.68,0,0,0-1.089-2.511l.589-.887-.345-.32a5.229,5.229,0,0,0-.816.764,46.255,46.255,0,0,1-2.659,3.87c-1.373,1.587-2.93-.015-4.4-.045-5.545-.11-11.088-.547-16.629-.5-1.582.015-3.81.832-4.6,2.033-1.985,3.028-3.318,6.484-4.871,9.682h4.73l.079.732-12.4,2.1c-.47,1.133-1.029,1.338-2.587.465a11.577,11.577,0,0,1-1.376-.9c-4.223-3.206-8.475-6.378-12.644-9.653-3.016-2.37-5.861-4.723-10.045-5.045-5.178-.4-10.308-1.419-15.79-2.218a59.587,59.587,0,0,1,12.389,34.023,14.887,14.887,0,0,1,2.822-.438c.546.025,1.072.5,1.606.77a7.452,7.452,0,0,1-1.229,1.107c-1.225.694-2.5,1.3-3.943,2.039a7.284,7.284,0,0,0-1.61.2c-2.955.936-5.909,1.884-8.825,2.936a6.76,6.76,0,0,0-1.725,1.367c-.306.255-.6.529-1.019.905-.2-.645-.349-1.107-.424-1.345h-6.984l-.105-.426c2.246-.7,4.492-1.4,6.755-2.1-.37-1.666-.741-3.144-1.025-4.638-1.523-8.035-3.29-16.006-6.514-23.565-1.89-4.433-3.909-8.8-7.151-12.479a1.945,1.945,0,0,0-2.669-.545c-4.355,1.925-8.767,3.722-13.476,5.7.331-.6.449-1.1.766-1.352a20.984,20.984,0,0,1,3.558-2.5c3.062-1.485,6.3-2.617,9.3-4.223a3.308,3.308,0,0,1,4.292.445,18.987,18.987,0,0,1,2.9,3.032c1.741,2.489,3.317,5.1,4.96,7.653.879,2.072,1.823,4.117,2.627,6.217a71.682,71.682,0,0,1,5.141,25.556l10.477-3.669c-1.278-3.77-5.668-4.567-6.889-8.055l5.661,4.3.359-.414c-2.34-2.909-5.624-4.828-8.432-7.245l.427-.6,7.029,4.608.367-.449c-2.845-3.506-6.981-5.541-10.366-8.477,3.7.3,6.074,3.073,8.986,4.959-.267-2.361-.338-2.473-2-3.708-.732-.546-1.4-1.179-2.163-1.68-2.47-1.624-4.324-4.234-7.528-4.716-.168-.026-.244-.653-.415-1.149,2.842-.234,4.576,1.62,6.643,2.639.594.495,1.183,1,1.787,1.48.558.445,1.133.87,1.914,1.469-.533-2.534-.583-2.6-2.555-3.777l-9.065-6.771C263.252,344.3,264.968,346.217,267.091,347.313Zm22.951-11.673c-1.147-1.526-1.1-3.961-3.14-4.807l-.477.346,3.349,4.82-.084,1.027-.424.254a22.963,22.963,0,0,1-2.7-3.474c-1.123-2.177-2.564-3.273-5.137-2.926a25.905,25.905,0,0,1-5.114-.052c-5.557-.368-11.18.8-16.69-.708a2.2,2.2,0,0,0-.723.082,29.164,29.164,0,0,1,3.789,3.193c1.247,1.461,2.589,1.761,4.469,1.876,4.545.277,9.055,1.111,13.591,1.606a18.851,18.851,0,0,1,10.946,4.651c4.1,3.616,8.707,6.659,13.109,9.931a4.716,4.716,0,0,0,1.717.958,7.02,7.02,0,0,0,7.769-3.441c-1.482-2.222-2.869-4.43-4.4-6.532a9.689,9.689,0,0,0-2.1-1.641l-.6.625c1.232,1.7,2.482,3.38,3.684,5.1a6.4,6.4,0,0,1,.545,1.327c-2.62-1.148-3.877-3.271-5.031-5.476-.7-1.338-.69-1.342-2.43-.953l2.958,4.723-.4.475a7.491,7.491,0,0,1-1.757-1.49c-1.053-1.693-1.848-3.55-2.928-5.223a27.3,27.3,0,0,0-2.672-3.077l-.74.564q2.406,4.006,4.812,8.012c-1.837-.886-3.815-1.748-5.09-3.218-1.929-2.222-3.315-4.905-5.039-7.315a33.166,33.166,0,0,0-2.762-3.034l-.587.488,3.963,6.048C291.741,338.378,291,336.849,290.042,335.64ZM341.69,226.556l.428-1.548q.353-1.98.706-3.963l.372-1.584c-.132-2.51.647-5.143-1.12-7.406l1.468-1.6,11.671,11.422a9.583,9.583,0,0,0-1.05-2.15c-2.893-3.135-5.835-6.225-8.794-9.3a2.552,2.552,0,0,0-1.338-.743c-2.693-.413-5.413-.665-8.1-1.129-2.607-.45-2.635-.506-3.424,2.229l1.717-1.12.444.489-3.45,3.474,1.361.654-.122.822c-2.536-1.113-2.787.74-3.379,2.034-2.1,4.586-4.78,8.653-9.663,11.018,2.127,2.065,2.984,5.288,6.123,6.025l.4-.393-2.9-3.72.426-.424,2.8,2.531c.957-.725,1.028-.761,1.648.479.6,1.2,1.273,2.012,2.8,1.356-.939-2.1-3.4-3.354-3.594-6.292.638.347,1.011.437,1.2.674a36.267,36.267,0,0,1,3.326,4.332c.8,1.373,1.742,1.644,3.4,1.2-1.692-2.1-3.322-4.045-4.838-6.074-.328-.441-.243-1.192-.348-1.8.532.211,1.257.271,1.566.66,1.839,2.315,3.582,4.708,5.508,7.277l2.181-.592c-2.787-3.4-5.5-6.311-7.341-9.834l.723-.593c2.794,2.474,4.743,5.732,7.128,8.6,1.2-1.462,1.007-2.619-.21-3.884a46.541,46.541,0,0,1-3.564-4.4,7.833,7.833,0,0,1-.744-1.719l.635-.38,5.58,6.347ZM221.881,325.242a10.82,10.82,0,0,1,6.245,1.378c1.247.6,2.476,1.246,3.713,1.871l.217-.4-4.863-2.61a27.922,27.922,0,0,0,.4-3.4,4.99,4.99,0,0,0-.648-1.648,5.376,5.376,0,0,1,1.988-.543c1.68.24,1.933-1.073,2.873-2.386l-1.556-.428.41-.483,1.682.366c.22-.957.416-1.805.611-2.653,2.685.553-.02,2.114.954,3.353l2.662,1.362c-.625-1.281-1.08-2.106-1.424-2.973a3.1,3.1,0,0,1,.015-1.131c.408.142.986.162,1.193.448.71.981,1.237,2.1,1.932,3.089,1.837,2.628,3.893,4.985,7.715,5.393-2.778-2.251-4.763-4.7-5.318-8.1,2.574,2.631,4.236,6.1,7.759,8.287-1.285-2.621-3.083-4.6-3.287-7.277,2.861,2.775,3.795,7.138,7.664,8.967-3.378-6.5-3.544-6.981-2.5-8.1,2.013,3.437,2.98,7.669,7.429,9.781l-3.95-8.761.672-.365c.544.808,1.142,1.584,1.62,2.428,1.018,1.795,1.855,3.706,3,5.414a18.759,18.759,0,0,0,2.79,2.756l.291-.336-3.957-7.638.551-.449a8.286,8.286,0,0,1,1.265,1.285c1.332,2.1,2.558,4.276,3.91,6.366.771,1.19,2.191,1.756,2.909,1.453l-4.088-7.6.379-.431c.517.4,1.212.692,1.522,1.215,1.141,1.932,2.1,3.974,3.256,5.895a2.342,2.342,0,0,0,1.657.988c1.633.041,3.279-.313,4.907-.238,5.465.253,11.049-1.195,16.384,1.082a.848.848,0,0,0,.68-.046c1.808-1.125,3.8-1.06,5.818-1.035,3.11.036,6.222,0,9.331-.082,1.363-.038,1.926.53,2.518,1.782a57.077,57.077,0,0,0,4.145,6.988,2.353,2.353,0,0,0,1.852.579,9.831,9.831,0,0,1,5.943.889c.195.11.822-.467,1.2-.78.531-.434,1.026-1.329,1.523-1.321,6.273.11,12.546.279,18.811.589,2.176.108,3.639-.49,4.706-2.606l-19-3.383V333.3a4.906,4.906,0,0,1-.95-.368c-3.632-2.545-7.455-4.866-10.829-7.718-4.793-4.05-9.961-5.152-15.691-3.272l3.1,3.949-.533.465c-2.225-1.2-3.519-3.843-6.216-4.341,1.121,1.465,3.127,2.018,3.944,3.74l-.448.617q-3.309-2.189-6.617-4.38l-.123.24,5.3,4.762-.408.586a8.392,8.392,0,0,1-1.577-.744,22.118,22.118,0,0,1-3.084-2.572c-1.961-2.134-4.272-2.47-6.977-1.644.189.1.339.17.475.26.87.578,2.648.283,2.284,1.931-.074.333-2.045.562-3.021.332q-20.081-4.736-40.12-9.645c-2.64-.645-5.22-1.533-8.087-2.386.1,1.424.189,2.593.274,3.763l-.414.256a12.288,12.288,0,0,1-1.427-2.625c-.332-1.24-.708-2.277-2.059-2.664-.068-.019-.091-.2-.181-.416l1.322-.818c-.308-1.118-.592-2.144-.882-3.192-.785,0-1.392-.008-2,0-9.678.14-19.357.239-29.032.443-4.442.094-8.888.293-13.317.634-2.978.23-2.966.379-3.159,3.31-.665,1.129.14,2.945-1.843,3.775.163-2.274.307-4.306.465-6.514l-3.433.322-1.148,4.347-.834-.13.3-4.192c-2.94,0-5.681-.074-8.412.064-.509.026-1.145.819-1.417,1.4a11.35,11.35,0,0,0-.571,2.475l-.624-.056c-.076-1.191-.152-2.383-.23-3.6a2.169,2.169,0,0,0-.515-.107c-9.324.334-18.646.717-27.972.991a67.678,67.678,0,0,1-8.939-.256c-1.651-.171-3.219-1.414-4.848-1.465-3.566-.114-7.147.223-10.977.387.385,2.9.73,5.5,1.116,8.4-2.808-2.174-1.707-5.416-2.644-7.675l-8.672-1.454a49.544,49.544,0,0,0,2.3,12.927c.061.212.413.382.664.491,2.477,1.087,4.963,2.154,7.443,3.232.707.308,1.406.64,2.108.96-3.29-2.624-3.29-2.624-2.94-3.494,3.832,2.021,7.572,4.286,12.117,4.389-2.436-1.834-5.583-2.467-7.847-4.525l.218-.465,2.134.359v-2.084c5.572-1.013,8.721,4.052,13.605,5.727-3.057-2.382-5.869-4.573-8.681-6.763l.417-.586,8.6,5.578c.1-.512.175-.8.217-1.094.387-2.72.433-2.988,3.232-2.849,3.508.173,7,.766,10.489,1.218.978.127,1.937.4,3.433.712l-3.168-2.821c1.234.05,2.108,1.317,3.3.105.1-.1.565.1.836.219,1.019.443,2.027.909,3.277,1.474l-1.15-1.828,4.155,1.792.111-.23-3.1-2.56.36-.519c4.151,1.723,7.417,5.023,11.361,7.116l.26-.407-11.511-8.246.382-.56c.748.355,1.866,1.212,2.181.98,1.537-1.135,2.482.292,3.665.57,1.92.45,3.831.938,5.752,1.387.13.03.3-.174.461-.189a8.185,8.185,0,0,1,2.917-.188c2.023.6,3.926,1.608,5.939,2.257a13.9,13.9,0,0,0,3.163.28l.082-.509-3.265-3.02c2.5-1.311,4.217-.164,5.7,1.325,1.6,1.6,3.3,1.438,5.244.689-1.123-1.186-2.225-2.352-3.328-3.516l.32-.441a6.513,6.513,0,0,1,1.326.6c1.022.766,1.941,1.68,3,2.38a9.883,9.883,0,0,0,2.215.809l.257-.523q-1.2-2-2.4-3.994l.654-.49a15.186,15.186,0,0,1,2.483,2.831,2.351,2.351,0,0,0,3.093,1.3l1.793-.444c-1-1.093-1.8-1.988-2.623-2.872-.462-.5-.766-.928.278-.994.954.912,1.907,1.824,2.866,2.726.927,2.018,2.3.551,3.727.6l-1.293-1.909-2.474,1.378c1.741-2.827,3.45-5.673,5.265-8.45.224-.343,1.007-.324,1.531-.471-.049.546.089,1.219-.181,1.617-1.091,1.608-2.307,3.131-3.506,4.726a8.983,8.983,0,0,1,1.6,1.74c.549,1.05,1.327,1.081,2.284.913,4.487-.787,8.965-1.631,13.466-2.326,3.473-.537,6.971-.911,10.466-1.284.552-.059,1.812-.327.992,1.08a6.552,6.552,0,0,0-.912.052c-9.842,1.9-19.661,3.924-29.53,5.674-8.029,1.424-16.087,2.835-24.193,3.612-3.3.315-5.036,1.93-6.951,4.043,1.26.634,2.394,1.223,3.545,1.776a3.011,3.011,0,0,0,1.333.462c4.366-.3,8.743-.536,13.087-1.048,4.843-.572,9.653-1.416,14.517-2.148l-2.5-3.793.641-.5c.649.789,1.274,1.6,1.957,2.36s1.12,2.2,2.672,1.21l-.825-3.573c2.265.147.835,3.763,3.607,3.218-.58-1.163-1.137-2.164-1.56-3.22-.088-.218.326-.637.509-.964.232.2.563.359.68.614.5,1.081.928,2.192,1.408,3.349l2.354-.293c.061-1.6-1.945-2.549-.814-4.679l2.285,4.415,2.455-.438c-.471-.864-.964-1.631-1.319-2.456-.341-.795-.539-1.652-.8-2.482l.574-.23,3.107,4.984,6.614-1.557a3.989,3.989,0,0,1-1.516,1.525c-.505.34-1.027.658-1.54.982l-5.447.769v.585l3.226,1.121c.138-.519.275-1.033.411-1.545C221.234,326.945,221.194,325.392,221.881,325.242Zm-133.833-69.4c-.047-.573.121-1.314-.175-1.692-2.437-3.117-4.96-6.167-7.457-9.236l-.76-2.042.535-.386c3.7,3.256,6.545,7.332,9.889,11.1l1.091-1.861c-2.707-1.669-7.571-8.349-7.045-9.992l7.609,8.579.435-.11c-.1-.594-.011-1.34-.338-1.756-1.393-1.771-2.922-3.433-4.371-5.161a13.209,13.209,0,0,1-.955-1.49l.771-.68,5.434,6.51c1.09-1.347.831-2.04-.067-2.83-.948-.835-2.185-1.592-1.9-3.356l3.272,2.77c1.378-2.7-1.918-2.7-2.363-4.638l3.586.635.231-.334-3.392-2.17c.249-.2.51-.553.674-.512,1.026.253,2.031.594,3.127.933.334-.826.722-1.651.988-2.512a4.1,4.1,0,0,0-.018-1.276,6.033,6.033,0,0,0-1.441.174c-1.356.506-2.653,1.472-4.028,1.583-5.455.437-10.93.641-16.4.878-1.936.083-3.878.013-5.916.013-.1.926-.237,1.883-.312,2.844-.478,6.148-.823,12.388-3.484,18.031a5.706,5.706,0,0,0,.8,6.851c.038.047.053.123.1.15.613.369,1.231.73,2.233,1.322-.573-2.651-2.28-4.34-1.678-6.65a20.539,20.539,0,0,1,2.6,4.762c.518,1.49,1.212,1.608,2.407.947-1.178-2.678-3.957-4.577-3.831-7.834,1.785,2.169,3.306,4.476,4.906,6.727.292.409.917.583,1.387.866l.508-.574c-2.052-3.352-4.1-6.7-6.3-10.291.709-.079,1.074-.206,1.142-.115,2.4,3.253,4.782,6.526,7.328,10.021l5.675-2.839c-2.245-3.189-4.341-6.1-6.356-9.07a13.121,13.121,0,0,1-1.02-2.381l.737-.39c2.659,3.566,5.317,7.134,8.021,10.763l1.25-1.062c-3.081-4.331-6.9-7.906-9.442-12.391l.789-.634,10.211,11.791Zm194.338-36.357c-1.077-1.059-2.125-2.151-3.249-3.161a2.369,2.369,0,0,0-1.471-.71,22.751,22.751,0,0,0-3.149.63c.664,1.094,1.314,2.052,1.827,3.077.165.332-.03.844-.062,1.274a4.508,4.508,0,0,1-.918-.768c-1.2-1.734-1.927-3.929-4.63-4.507.631,1.07,1.189,1.916,1.639,2.815.413.823.708,1.7,1.055,2.56l-.415.213c-4.237-5.991-7.609-12.849-15.4-15.645,2.569,3.662,4.938,7.123,7.4,10.515,1.073,1.477,2.025,2.906,1.348,4.977a3.991,3.991,0,0,1-.808-.556c-.917-1.057-1.81-2.136-2.694-3.222-3.227-3.961-6.639-7.794-9.57-11.965-1.053-1.5-2.042-1.712-3.8-2,1.7,2.059,3.178,3.751,4.553,5.523q4.252,5.476,8.4,11.035a6.662,6.662,0,0,1,.652,1.9l-.676.3c-.611-.85-1.2-1.713-1.834-2.548q-6.1-8.084-12.228-16.139c-.229-.3-.83-.311-1.257-.456l-.276.409c3.434,6.062,8.468,11.12,11.579,17.6-1.712-.22-12.106-15.364-12.761-18.279l-4.358-.47c4.348,5.383,8.6,10.2,11.372,16.114a2.538,2.538,0,0,1-1.552-.846c-3.565-4.855-7.082-9.745-10.645-14.6a2.035,2.035,0,0,0-1.225-.829c-1.253-.11-2.522-.039-4.1-.039,3.389,1.327,6.128,2.991,7.447,6.3,2.137,5.373,4.264,10.752,6.487,16.089a47.962,47.962,0,0,0,2.492,4.641c.075.136.277.2.356.258l.75-.5c.394.856.526,1.822,1.069,2.206a7.948,7.948,0,0,0,8.121.635c-1.039-2.019-2.074-3.927-2.985-5.895-.162-.349.19-.938.3-1.416.4.254.914.421,1.168.776,1.335,1.871,2.6,3.79,3.895,5.691a11.465,11.465,0,0,0,1.387-.573q8.147-4.875,16.271-9.787c.21-.127.294-.46.441-.692l10.316-6.779-.15-.676c-.947-.195-2.015-.769-2.822-.515-3.311,1.048-6.542,2.348-9.742,3.533C280.812,216.609,281.6,218.049,282.386,219.487Zm18.426,79.562-2.393-2.571-.215.157c.222.62.443,1.242.679,1.9l-9.851-6.158-.441.685,15.441,11.051c-1.875.263-3.495.536-5.125.689a2.233,2.233,0,0,1-1.426-.417c-2.9-2.186-5.753-4.446-8.665-6.62a6.42,6.42,0,0,0-1.808-.633l-.152.4,9.19,6.857L294.2,312.5l-.621-.09c-1.025-2.454.429-4.839.483-7.114a22.863,22.863,0,0,1-2.566-1.276c-2.585-1.709-5.122-3.49-7.689-5.225a8.357,8.357,0,0,0-1.159-.551l-.366.549,9.083,6.644c-2.141,0-4.016-.048-5.889.011-2.831.089-2.816.123-3.21,2.856a6.385,6.385,0,0,1-.485,1.3l-.722-.013-.7-4.252c-4.383,0-8.821-.015-13.257.012-.982.006-1.964.156-2.945.24l-1.606,1.047c-.841-1.413-1.922-.737-2.952-.26-.645-2.941-2.848-4.673-4.749-6.591-1.921-1.939-3.963-3.761-5.961-5.644.32-.47.584-.859.871-1.283l-1.978-1.725a5.4,5.4,0,0,1,2.4,1.394c4.075,3.85,8.118,7.734,12.2,11.576a6.679,6.679,0,0,0,1.5.817l.662-.791-8.354-7.225.445-.523c.505.272,1,.58,1.519.811,3.208,1.408,6.408,2.836,9.655,4.147.4.161,1.062-.34,1.582-.526-1.349-.6-2.553-.83-3.284-1.544-.808-.788-1-2.2-1.78-3.025-1.828-1.933-3.852-3.68-5.8-5.5,4.993,2.81,9.486,6.469,14.9,8.433l.509-.787q-6.255-4.164-12.511-8.327a4.255,4.255,0,0,1,2.1.562c2.937,1.485,5.7,3.408,9.074,3.807.56.067,1.179-.365,1.771-.566-.791-.693-2.134-2.089-2.286-1.97-1.366,1.073-2.046-.218-2.713-.753-1.884-1.51-3.618-3.21-5.41-4.835a4.6,4.6,0,0,1,1.787.61c3.9,2.1,7.782,4.242,11.725,6.263.571.293,1.436.012,2.165,0-.158-.578-.318-1.157-.441-1.606l2.661-.783-2.1-3.38c.581-.852,1.083-1.653-.753-2.613-2.3-1.2-4.242-3.069-6.338-4.65a4.472,4.472,0,0,1,2.09.462c1.905.774,3.777,1.647,5.733,2.26a2.27,2.27,0,0,0,2.055-.594c.29-.445,0-1.519-.378-2.1a29.678,29.678,0,0,0-2.488-2.975c1.383.5,2.61,1.259,3.907,1.859a5.125,5.125,0,0,0,1.742.141c-.272-.538-.407-1.267-.842-1.58-1.787-1.284-3.665-2.442-5.51-3.646l.113-.236,7.618,2.99.257-.354-2.733-3.508c2.05-3.041,3.157-3.5,4.9-1.988l-1.553,1.311c1.363-.007,2.875.168,2.957-1.7.057-1.293-1.368-2.081-3.182-1.872a4.7,4.7,0,0,1-.716.117,4.167,4.167,0,0,1-1.427-.181c-1.11-.49-1.659-.111-1.642,1.165.008.674-.1,1.351-.178,2.2-3.1-2.593-5.868-4.889-8.605-7.215-.251-.213-.318-.638-.49-.953-.311-.566-.5-1.386-.978-1.646q-11.453-6.2-22.985-12.253c-.451-.238-1.394-.472-1.483-.327-.8,1.312-1.589.349-2.381.1-.4-.128-.971-.484-1.181-.336-1.571,1.1-2.7-.254-4.014-.6-2.2-.57-4.067-3.124-6.708-1.134-.1.079-.353-.036-.535-.053a12.281,12.281,0,0,0-7.825,2.029c-2.052,1.3-3.985,2.8-5.931,4.266-2.627,1.979-5.117,4.156-7.848,5.978-3.68,2.455-7.436,2.02-10.89-.573a34.453,34.453,0,0,1-4.272-3.982c-4.049-4.3-4.777-4.447-9.956-1.555a13.294,13.294,0,0,0-2.744,1.8c-3.175,3.015-6.658,5.815-9.307,9.25-4.252,5.515-7.932,11.469-12,17.453,2.506,2.05,4.836,3.94,7.148,5.851,5.4,4.464,10.781,8.947,16.2,13.391a5.823,5.823,0,0,0,1.559.642l.39-.611q-3.29-2.989-6.579-5.981l.149-.238,3.284,2.016c2.223,1.75,4.164,3.9,6.9,5a3.488,3.488,0,0,0-.682-1.656c-1.442-2.2-3.831-2.737-6.113-3.461l-1.382-1.721c2.06.179,3.638,1.852,5.281.475-.4-1.778-.749-3.3-1.093-4.812l.574-.291a25.317,25.317,0,0,0,2.344,1.529c3.231,1.645,6.518,3.179,9.729,4.862,3.061,1.6,6.036,3.371,9.087,5a12.531,12.531,0,0,0,2.519.676l-12.144-8.526.345-.556,11.544,6.233.408-.44a8.406,8.406,0,0,0-1.441-1.464c-3.108-1.906-6.26-3.742-9.392-5.612-.362-.217-.689-.492-1.034-.741l.272-.524c5.951.229,10.14,5.038,15.59,6.569l.287-.49L206.351,290.9l.348-.6c1.2.644,2.4,1.3,3.607,1.927,3.437,1.79,6.859,3.613,10.338,5.322a7.261,7.261,0,0,0,2.344.3c-5.353-3.178-10.566-6.25-15.736-9.391-.37-.225-.43-.96-.634-1.458l.437-.249,3.78,2.02.464-.359a5.875,5.875,0,0,0-1.015-1.5,21.457,21.457,0,0,0-2.494-1.5l-.015-1.026c1.077.648,2.14,1.324,3.24,1.929a1.953,1.953,0,0,0,1.249.306c2.43-.621,2.7-.476,3.326,2.019q.317-.823.631-1.645c1.548-.363,1.723.482,1,1.436a18.893,18.893,0,0,1-2.805,2.509l16.807,9.631c.284-.5.4-1.027.671-1.121,1.495-.522.735-1.013.016-1.485-.891-.585-1.811-1.127-2.719-1.686l.206-.4,6.373,3.59.313-.469-1.715-1.583,1.252-.773a8.974,8.974,0,0,0-1.129-.94c-.567-.339-1.211-.549-1.79-.869q-7.722-4.264-15.43-8.548l-7.414-4.542c.664-1.447.631-1.431-.08-2.929a1.5,1.5,0,0,1,.157-1.091c1.426-.135,2.964-.528,4.261-.141,1.253.374,2.266,1.565,3.371,2.416.571.44,1.111.921,1.666,1.385a20.24,20.24,0,0,1-4-2.106,2.291,2.291,0,0,0-3.538,1.476l38.521,22.361c-1.712-3.011-5.02-4.327-7.505-6.593a13.409,13.409,0,0,1,1.94.782c1.926.876,3.839,1.781,5.789,2.6,1.052.442,2.055.5,2.183-1.072l-.006.012c1.814,2.713,4.9,4.49,5.994,8.041-6.978,1.533-13.888.256-21.269.528.773,1.5,1.066,3.107,1.953,3.57,1.5.782,3.373.839,5.089,1.2.048.036.093.094.147.107q13.819,3.406,27.643,6.786c.165.04.4-.2.64-.325L269,312.948l.8-.559c1.522,2.056,3.027,4.127,4.579,6.161a11.086,11.086,0,0,0,1.365,1.283l.392-.4c-1.036-1.563-2.088-3.117-3.1-4.7a3.98,3.98,0,0,1-.313-1.059,3.806,3.806,0,0,1,1.258.2,2.549,2.549,0,0,1,.844.938c.923,1.5,1.783,3.036,2.73,4.519a8.093,8.093,0,0,0,1.208,1.232l.559-.509c-1.074-1.781-2.149-3.56-3.208-5.313,1.854-.552,3.959,2.313,4.285,6.146l2.193.353c-1.482-2.617-2.785-4.87-4.032-7.155a8.3,8.3,0,0,1-.508-1.689c.594.286,1.372.423,1.749.885,1.222,1.5,2.3,3.111,3.428,4.681l5.558-.905v-2.613c1.023.723,1.531,1.938,2.394,2.3.7.292,1.833-.438,2.9-.753a19.835,19.835,0,0,0,2.924.5c3.224.125,6.505-.2,9.671.27,7.637,1.14,15.218,2.645,22.829,3.965.553.1,1.45-.388,1.688-.134,1.049,1.12,1.621.43,2.367-.318a9.291,9.291,0,0,1,1.788-1.26c6.672-4.074,12.205-9.507,17.781-14.886.1-.094.09-.3.168-.578-2.95-.163-5.8-.368-8.645-.427a1.809,1.809,0,0,0-1.335,1.009c-.53,1.523-.859,3.115-1.325,4.906-1.312-2.159-.025-4.035.142-6.084-1.518.069-3.552-.414-4.154.3-1.381,1.649-2.09,3.871-3,5.892-.122.272.347.961.229,1.053a4.04,4.04,0,0,1-1.278.458c-.148-.479-.533-1.039-.4-1.427.685-2.063,1.5-4.083,2.269-6.119l-.213-.447-2.209.993a5.515,5.515,0,0,0-1.849-.462c-1.292.181-2.556.562-4.054.914-.463,2.237-.973,4.7-1.494,7.212l.72.1.62.09.027.515c-.669.069-1.5.409-1.963.134s-.618-1.152-.792-1.8a2.55,2.55,0,0,1,.142-1.073c.427-2.043.863-4.087,1.356-6.416a6.081,6.081,0,0,0-1.919.557c-2.056,1.659-4.415,1.917-6.916,1.736-3.347-.243-6.7-.41-10.04-.716a4.024,4.024,0,0,1-2.3-.9c-1.482-1.424-2.788-3.032-4.164-4.568,2.426,1.266,4.856,2.524,7.274,3.805.576.3,1.108.689,1.66,1.036l.3-.5a30.005,30.005,0,0,0-8.372-5.33C301.524,297.965,301.088,298.684,300.812,299.049ZM131.819,284.822a18.392,18.392,0,0,1-1.6-1.434c-1.336-1.5-2.592-3.068-3.954-4.54a6.56,6.56,0,0,0-1.6-.96l-.184.339,15.173,20.145.662-.451c-1.972-4.431-5.25-8.063-7.916-12.07l1.077-.938,9.383,12.31.593-.312-1.482-3.62a30.958,30.958,0,0,1,2.977,3.726,7.444,7.444,0,0,0,.876.864c.924-1.281,1.361.476,2.5.253a4.891,4.891,0,0,0-.374-1.58c-1.331-2.038-2.763-4.008-4.111-6.035a7.754,7.754,0,0,1-.613-1.562,3.1,3.1,0,0,1,1.553,1.2c1.07,1.472,2.063,3,3.186,4.434.558.712,1.205,2.056,2.26.387l3.537,4.6.528-.414-1.328-2.809,1.2-.708,2.839,2.211c.559-2.624.538-2.608-.739-4.308q-3.452-4.6-6.855-9.235c-2.974-4.075-5.912-8.177-8.866-12.267a1.545,1.545,0,0,1,1.134.535c1.426,1.668,2.8,3.381,4.24,5.035q6.4,7.354,12.836,14.678c.437.5.923,1.514,1.254,1.462,1.79-.283,1.9,1.358,2.678,2.154.843.857,1.44,1.952,2.257,2.838a5.042,5.042,0,0,0,1.514.786l.562-.646q-9.287-11.346-18.571-22.693c.51-.181.828-.127,1,.061,2.661,2.855,5.367,5.672,7.933,8.61,2.837,3.25,5.526,6.627,8.323,9.915a12.7,12.7,0,0,0,1.789,1.468l.556-.525c-1.678-3.381-4.959-5.677-6.564-9.136,4.09,5.544,9.51,9.875,13.686,15.325a4.809,4.809,0,0,0,1.386.866c0-.58.218-1.278-.027-1.72-1.045-1.88-2.225-3.686-3.356-5.518l.169-.161q3.236,2.768,6.473,5.535l.5-.428a5.781,5.781,0,0,0-.761-1.3c-5.245-5.158-10.522-10.284-15.772-15.438-1.129-1.107-1.836-.842-2.5.591a3.339,3.339,0,0,1-.321-1.315c-.034-.423.131-1.018-.09-1.246-2.091-2.165-4.246-4.268-6.383-6.389l-.416.394q.791,1.453,1.58,2.906l-.41.238c-.349-.46-.688-.93-1.053-1.378-2.564-3.163-4.9-6.55-7.749-9.434-6.168-6.249-12.571-12.265-18.95-18.3a4.992,4.992,0,0,0-3.1-1.537c-2.025.086-3.28-.869-4.58-2.113a20.576,20.576,0,0,0-2.941-2.319,4.88,4.88,0,0,0-1.678-.366l.8,1.727a7.626,7.626,0,0,0-.827.339,4.485,4.485,0,0,0-1.227.729c-6.5,6.659-12.412,13.766-16.521,22.2a26.373,26.373,0,0,0-2.788,13.443c.08,1.218.279,1.951,1.818,2.046a6.374,6.374,0,0,1,3.057,1.438,18.707,18.707,0,0,1,2.361,2.508c.273-1.045.506-1.939.741-2.834l.621-.218,13.475,18.528.539-.308a13.6,13.6,0,0,0-.91-1.887c-3.492-5.126-7.017-10.229-10.515-15.351a2.452,2.452,0,0,1-.2-.823l2.685,2.557.55-.457-2.888-3.688q-.556.457-1.114.913a7.4,7.4,0,0,0-1.584-.359c-2.366-.016-4.651-.339-6.427-2.05-.64-.617-1.574-1.419-.464-2.811,1.825,3.907,5.245,2.014,7.7,2.68l-.272-2.354.566-.094,1.494,1.766,1.627-1.773c-.964-.331-1.577-.547-2.193-.753a38.5,38.5,0,0,1-5.079-1.74c-1.642-.818-1.661-2.4-.387-3.7.647,1.007,1.113,2.652,2.008,2.936,1.853.585,3.934.444,6.1.617l-.967-2.394.341-.334c.623.368,1.809.8,1.774,1.1-.206,1.74,1.234,2.366,2.043,3.367,2.294,2.841,4.621,5.658,7.041,8.392,4.313,4.871,8.7,9.678,13.071,14.5a4.431,4.431,0,0,0,.9.6l.368-.326-11.332-17.88a10.3,10.3,0,0,1,3.551,2.761c2.491,3.222,4.843,6.551,7.223,9.858a4.347,4.347,0,0,1,.407,1.175l.842-.709c-.938-3.2-3.6-5.433-5.319-8.455.485.067.836.016.918.142,2.322,3.524,4.6,7.076,6.936,10.591a6.917,6.917,0,0,0,1.38,1.2l.565-.518c-.846-1.83-1.406-3.873-2.585-5.457-6.524-8.766-13.2-17.421-19.828-26.108-.366-.478-.817-.892-1.242-1.349l-1.3,1.531,2.563,3.665c-2-.975-2.552-3.769-5.342-3.761l2.007,3.787-.729.635q-1.76-2.05-3.519-4.1l-.339.291c.31.464.584.957.933,1.387,2.752,3.387,5.638,6.672,8.237,10.171,1.811,2.44,3.237,5.165,4.822,7.771.042.069-.052.222-.19.733-4.485-5.644-8.872-11.051-13.093-16.584a7.521,7.521,0,0,1-1.144-3.8,6.7,6.7,0,0,1,.865-2.531,6.61,6.61,0,0,0,1.206-.79c1.78-1.776,2.863-1.893,4.575-.162,1.171,1.184,1.4.1,1.814-.7l4.267,7.109.526-.211-.6-2.564a17.9,17.9,0,0,1,3.3,3.451C125.907,276.369,128.85,280.606,131.819,284.822Zm153.8-19.162.247-.218a17.963,17.963,0,0,0-1.252-1.455,96.9,96.9,0,0,0-17.243-12.844,4.965,4.965,0,0,0-1.495-.654c-.347-.069-1.016.08-1.077.276a1.815,1.815,0,0,0,.212,1.268c.089.162.6.11.925.12.176,0,.414-.159.521-.09,2.277,1.481,4.538,2.984,6.8,4.482l-.385.648q-6.009-3.35-12.021-6.694a9.69,9.69,0,0,0-1.941-.905c-2.641-.762-5.3-1.461-7.954-2.183l.093-.389h12.563c-1.974-3.441-4.042-6.932-5.992-10.488-.994-1.814-1.29-2.069-3.424-1.759l2.468,1.589-.19.5-9.443-1.734v4.857c-2.166-1.586-.535-3.746-1.345-5.114l-3.274-.777c-.513,2.047-1.021,4.076-1.53,6.1l-.865-.174c.392-2.13.783-4.262,1.181-6.428l-4.063-.879-1.264,4.526-.709-.164c.166-1.506.332-3.012.5-4.558-.552-.138-.97-.206-1.361-.347-1.7-.613-2.89-.234-3.535,1.591a9.722,9.722,0,0,1-1.171,1.866l-.5-.258,1.471-3.727a3.325,3.325,0,0,0-.673-.233c-6.049-.755-12.107-1.45-18.148-2.265-2.952-.4-5.531,0-7.481,2.494-.254.325-.7.491-1,.79-2.006,2-4.592,1.327-5.631-1.957a10.01,10.01,0,0,1-.232-1.628h-5.19c-1.06,3-.045,5.721.809,8.476-2.446-2.318-2.736-5.2-2.462-8.463-.487.26-1.023.657-1.042,1.077-.09,2.013-.041,4.034-.041,6.6-2.109-2.511-.5-5.242-1.321-7.627l-3.046.178c.415,2.168.785,4.111,1.213,6.351-.484-.359-1.318-.659-1.523-1.2a9.921,9.921,0,0,1-.437-3.041c-.1-2.182-.334-2.375-2.829-1.671.419,1.96.857,3.95,1.245,5.947a.88.88,0,0,1-.32.746c-.2.123-.726.1-.8-.029a4.672,4.672,0,0,1-.608-1.634c-.2-1.739-.308-3.489-.45-5.212-3.71-.278-4.124.056-4.3,3.582-.035.725.224,1.461.246,2.195a1.012,1.012,0,0,1-.43.818.957.957,0,0,1-.892-.276,3.066,3.066,0,0,1-.367-1.551c.136-1.484.4-2.957.63-4.6l-2.587.2v6.694l-.672.031-.489-6.589-2.229.111c-.239,2.619-.455,4.987-.672,7.356l-.586-.018c-1.137-2.27.72-4.753-.274-7.137l-2.794.182c.188,2.653.356,5.052.525,7.449l-.538.064c-1.356-2.213-.794-4.849-1.026-7.338l-2.652.212c.24,2.727.464,5.274.688,7.821l-.526.122c-1.794-2.231-.7-5.169-1.284-7.8l-3.56.415v9.869c-.4-.062-.831-.009-.927-.164-1.868-3.011-.077-6.278-.55-9.5l-4.938.764v11.747l-.712.225a5.7,5.7,0,0,1-.811-1.574,13.245,13.245,0,0,1-.075-2.737c.11-2.473.264-4.944.438-8.093-1.388.843-3,1.274-3.157,2.014a76.348,76.348,0,0,0-.945,8.368,7.385,7.385,0,0,1-.856-.069c-.046-2.884-.042-5.768-.042-8.787l-2.562.553v6.12c-2.147-1.714-1.192-3.846-1.4-5.761l-1.627.45.728,6.074-.7.152c-.537-1.895-1.073-3.788-1.653-5.839l-13.545,4.006c1.61,1.39,2.9,2.41,4.086,3.548,2.941,2.831,6.123,5.476,8.686,8.621,7.838,9.624,17.456,17.672,24.565,27.931.905,1.306,1.835,1.076,2.485-.37a77.759,77.759,0,0,1,13.518-21.175,32.29,32.29,0,0,1,11.514-8.541c4.794-1.938,6.7-1.488,10.257,2.208a56.578,56.578,0,0,0,5.032,4.777,5.431,5.431,0,0,0,7.089.253c1.442-1.022,2.839-2.109,4.256-3.166,3.124-2.332,6.137-4.836,9.4-6.947a15.549,15.549,0,0,1,11.2-2.3c5.544.88,10.965,1.979,15.967,4.74,6.168,3.4,12.47,6.562,18.671,9.906,3.266,1.762,6.446,3.687,9.65,5.564a13.967,13.967,0,0,1,1.455,1.124l.293-.322q-1.1-1.247-2.208-2.492l.205-.409ZM120.347,212.818c.335.244.571.4.794.581,1.955,1.548,3.927,3.075,5.843,4.669.283.236.3.792.436,1.2-.41-.075-.925-.016-1.215-.244-2.243-1.768-4.375-3.685-6.688-5.352a13.412,13.412,0,0,0-3.394-1.263l-.278.6c2.023,2.164,5.332,3.159,6.188,6.441a1.892,1.892,0,0,1-1.383-.383,66.284,66.284,0,0,1-5.371-4.923c-1.506-1.659-3.072-1.155-5.012-.766.66.51,1.138.865,1.6,1.239,1.419,1.148,2.851,2.28,4.228,3.478.243.212.238.709.347,1.075a5.762,5.762,0,0,1-1.26.028,1.9,1.9,0,0,1-.739-.508c-1.709-1.46-3.388-2.959-5.137-4.371a5.625,5.625,0,0,0-1.634-.62c1.407,2.612,4.018,3.936,4.834,6.782a2.143,2.143,0,0,1-1.608-.343c-1.144-1.224-2.123-2.6-3.265-3.828-1.954-2.095-1.986-2.066-5.006-.795,2.074,2.435,4.809,4.271,6.441,7l-.7.647c-2.437-2.424-5.053-4.662-7.014-7.318-2.379-.293-4.24.475-4.7,2.816a15.61,15.61,0,0,0,.026,5.2c.435,2.927,1.624,5.787.3,8.786-.124.284.258.791.544,1.577a17.25,17.25,0,0,1,8.249-7.931,62.988,62.988,0,0,1,21.616-5.713c3.127-.24,6.257-.426,9.382-.679,4.769-.387,6.891.835,8.972,5.178a13.311,13.311,0,0,0,1.535,2.681,2.168,2.168,0,0,0,1.648.661c7.638-.763,15.251-1.921,22.905-2.333,11.318-.608,22.665-.676,34-1.043a5.6,5.6,0,0,0,2.975-.916,29.094,29.094,0,0,1,22.243-5.524c3.667.523,6.909,3.239,11.182,1.784l-.72,1.278,4.666,5.083a10.432,10.432,0,0,0-.258-2.075c-2.063-5.532-4.091-11.08-6.28-16.563-1.48-3.706-4.834-4.905-8.536-6,.363,2.72,2.764,4.565,1.819,7.34-1.285-2.562-2.571-5.123-3.92-7.813l-4.909,1.7,3.665,6.374-.7.394-4.228-6.254a2.812,2.812,0,0,0-.733.1q-8.029,3.5-16.049,7.016c-.166.073-.464.213-.453.27.451,2.122-1.519,2.334-2.591,3.136a22.216,22.216,0,0,1-3.839,2.08c-.757.36-.94,1.989-2.327,1.053-.2-.132-.675.141-1.02.239a50.829,50.829,0,0,1-4.891,1.387,75.612,75.612,0,0,1-29.6-.531c-6-1.288-11.973-2.7-18.1-4.087l3.148,4-.5.43c-1.639-1.579-3.075-3.491-4.973-4.641s-4.272-1.551-6.436-2.28l-.227.54,7.675,5.517-.275.464a7.33,7.33,0,0,1-1.565-.634c-2.281-1.608-4.51-3.294-6.795-4.9a13.322,13.322,0,0,0-2.021-.971c1.652,2.383,4.434,3.535,5.39,6.4a1.966,1.966,0,0,1-1.279-.468,49.889,49.889,0,0,1-4.545-4.232c-1.376-1.586-2.921-1.564-4.872-1.264,1.742,2.222,4.483,3.311,5.219,6.137a27.774,27.774,0,0,1-5.157-4.172C124.466,212.776,122.849,211.846,120.347,212.818Zm33.42-.033c12.461-1.416,24.829.955,37.006.045l-.169-1.148c.406-.032.883-.218,1.208-.07,1.434.652,2.852,1.349,4.223,2.124a4.138,4.138,0,0,0,5.557-.889c-.737-.359-1.529-.744-2.382-1.158l12.178-6.638c-2.117-1.827-4.665-2.045-7.185-2.315a3,3,0,0,0-3.322,1.81c-.556,1.111-1.175,2.393-3.13,2.434l2.9-4.719-4.429-.369c-.27,1.644-.5,3.055-.73,4.465l-.46-.06v-4.609h-2.5c-.077,1.72-.151,3.36-.224,5-1.58-1.606-.66-3.524-1.029-5.312h-2.265a27.722,27.722,0,0,1,.424,2.985,15.886,15.886,0,0,1-.261,2.419l-.628-.07-.646-5.364h-1.68v6.006l-.657.033c-.161-1.708-.393-3.413-.456-5.123-.04-1.072-.376-1.42-1.61-1.033.188,2.072.372,4.108.556,6.145l-.8.1c-.352-2.055-.7-4.11-1.069-6.257l-1.649.141c.193,1.3.319,2.439.54,3.555.209,1.059.518,2.1.783,3.144l-.61.157c-1.413-1.954-1.576-4.314-1.769-6.659l-2.077.689c.807,2.229,1.577,4.355,2.347,6.481l-.883.335a50.641,50.641,0,0,1-2.142-5.558c-.346-1.3-.841-1.851-2.212-1.669.545,2.266,1.073,4.455,1.6,6.643l-.961.252c-.667-2.288-1.334-4.578-2.13-7.312-2.141,2.857.986,5.408-.311,7.946-.271-.223-.674-.387-.735-.633-.429-1.761-.741-3.551-1.2-5.3-.121-.453-.651-.8-.993-1.192a37.431,37.431,0,0,0,1.483,5.81c.1.342-.2.8-.311,1.206a3.915,3.915,0,0,1-.818-.977c-.577-1.522-1.075-3.073-1.578-4.541l-1.621.632c.216,1.635.427,3.233.638,4.831l-.761.147c-.464-1.8-.927-3.6-1.4-5.427-1.617-.224-2.446.509-2.027,1.871.2.635.467,1.246.672,1.878.381,1.181.74,2.368,1.108,3.552l-.79.264c-.912-2.259-1.823-4.518-2.818-6.985l-1.873.443c.369,2.029.7,3.852,1.031,5.675l-.857.2c-.512-1.835-1.025-3.668-1.562-5.594l-2.15.617c.331,1.426.685,2.794.941,4.181.059.32-.217.7-.338,1.055-.311-.256-.781-.453-.9-.78-.48-1.281-.849-2.6-1.247-3.875-2.515.416-2.794.9-2.077,3.011a13.3,13.3,0,0,1,.362,1.954l-.653.231-1.841-4.24c-1.778,1.531.734,3.1-.6,4.742-.6-1.346-1.122-2.533-1.681-3.795l-4.276,1.529C146,212.021,146,212.021,153.891,214Zm145.586,34.736.207-.474q-3.081-1.567-6.163-3.131l.259-.682a30.16,30.16,0,0,1,3.427,1.064c3.776,1.664,7.508,3.427,11.273,5.116a14.537,14.537,0,0,0,2.026.587c-4.474-2.545-9.216-4.423-13.743-6.723l.3-.713,5.735,1.5c-.647-.556-1.1-.945-1.83-1.567a7.339,7.339,0,0,1,1.048-.042c5.249.853,9.857,3.315,14.506,5.709a11.875,11.875,0,0,0,3,.661l.12-.556-15.912-7.2.191-.6,4.048.71.1-.719c-1.43-.219-2.852-.539-4.29-.634-2.181-.143-4.382,0-6.553-.205-7.983-.754-15.874-2.5-23.957-2.125-.739.034-1.48,0-2.7,0,7.219,6.315,15.2,9.729,23.778,11.9l.276-.515-7.222-4.015c1.936-1.812,3.8-1.124,5.691-.233,1.043.494,2.122.907,3.175,1.381C297.214,246.5,298.28,247.019,299.353,247.521Zm11.685-12.82a3.939,3.939,0,0,0-1.1-.375c-4.14.211-8.167-.655-12.23-1.2-1.7-.227-3.465-.03-5.117-.4-2.434-.545-4.77-2.065-7.24-.106-.183.144-.671-.057-1-.147-1.163-.312-2.32-.646-3.832-1.07.451,1.177.661,1.725,1,2.61l-1.564-.672c-.691.42-1.036.8-1.4.819-1.522.067-2.161-.817-2.021-2.511-3.453.584-6.992-1.536-10.123,1.138,1.245,2.584,3.566,3.089,6.019,3.191,4.98.208,9.972.205,14.945.508,4.911.3,9.8,1.072,14.709,1.244A11.786,11.786,0,0,0,311.037,234.7Zm-193.958,2.117.129-.3-3.868-2.853.669-1.863,10.344,3.754.283-.729-6.763-3.455c1.052-1.383,2.039-.488,2.906-.3a33.049,33.049,0,0,1,3.294,1.121c-1.849-1.941-4.61-1.7-5.926-4.448l5.007,1.09.1-.231-2.53-1.361.2-.523,5.973,1.632c-.462-.553-.637-.937-.931-1.087-2.919-1.485-5.711-3.667-9.293-1.8a12.868,12.868,0,0,1-1.719.61c-6.123,2.129-6.284,2.552-3.223,8.432.056.108.083.251.17.32a6.136,6.136,0,0,0,1.644,1.225A30.631,30.631,0,0,0,117.079,236.818Zm196.5-51.665a17.115,17.115,0,0,1-.026,2.932c-.483,2.415.543,3.823,2.563,5.107,2.937,1.866,5.636,4.107,8.626,6.33.452-1.868.844-3.48,1.222-5.039C321.857,191.389,317.89,188.4,313.579,185.153Zm-1.7,51.91c3.794.889,7.661,1.6,11.4,2.741,2.335.709,4.49,1.379,6.854.285a4.511,4.511,0,0,1,2.131-.386c2.653.191,3.448-1.864,4.911-3.576a5.771,5.771,0,0,0-.913-.069,57.873,57.873,0,0,1-20.508-.423A3.7,3.7,0,0,0,311.878,237.063Zm6.558,58.443c3.45,1.533,6.039,4.623,9.715,5.673l.651-.855a19.605,19.605,0,0,0-1.672-1.055c-.965-.488-2.029-.805-2.937-1.376-2-1.258-3.92-2.649-5.9-3.943-.44-.287-1.288-.693-1.451-.533-.954.93-1.341-.065-1.88-.442-2.837-1.992-5.657-4.011-8.5-6a4.919,4.919,0,0,0-1.1-.428l-.211.319,12.061,10-.307.506-2.853-1.232-.279.565,8.292,4.644.34-.511-4.349-3.022,1.531-.946C319.192,296.408,318.815,295.956,318.436,295.506Zm18.649-18.958.254-.306,7.9,6.388c-.027-2.947-14.556-13.056-18.365-12.761L344.432,284.2l.516-.555Zm-227.6,1.763-.424.095a13.76,13.76,0,0,0,1.461,3.348c3.4,4.224,6.978,8.3,10.4,12.508,2.093,2.569,4.025,5.267,6.029,7.907l.442-.243a11.81,11.81,0,0,0-1.012-2.121c-3.41-4.558-6.823-9.116-10.327-13.6C113.947,283.506,111.676,280.937,109.48,278.311Zm6.223,52.422c-.628,1.986-1.181,3.727-1.762,5.563l3.482-.287c1.4-3.294,4.618-1.587,6.777-2.632C122.2,330.119,120.747,329.687,115.7,330.733Zm63.479,1.435c.94.7,2.076,1.58,3.258,2.393a1.328,1.328,0,0,0,.96.033c4.147-1.135,8.274-2.333,12.43-3.43,2.428-.642,4.9-1.133,7.346-1.692l-.07-.3ZM121.888,302.16l.157-.665q-7.083-9.967-14.164-19.928c-1.212.651-.635,1.406-.02,2.281,4.143,5.9,8.238,11.834,12.41,17.713C120.547,301.949,121.337,301.969,121.888,302.16Zm219.358-10.049.369.031a8.188,8.188,0,0,0-1.089-2.219,26.392,26.392,0,0,0-4.183-3.794c-3.811-2.563-7.739-4.954-11.651-7.362a6.946,6.946,0,0,0-1.876-.513,53.069,53.069,0,0,0,7.254,5.125c2.307,1.334,3.641,3.811,6.537,4.618C338.4,288.5,339.717,290.682,341.247,292.111ZM112.678,302.138a5.871,5.871,0,0,0-.523-1.484q-4.9-5.532-9.862-11.008c-.281-.31-.828-.376-1.239-.551.406,3.287,2.685,5.165,4.539,7.267C107.5,298.524,109.154,301.094,112.678,302.138Zm196.675-62.661c4.692,1.859,9.255,3.17,13.087,5.959l-.157.545h-2.763c2.947,1.666,3.817,1.589,6.24-.505-2.611-1.463-5.283-2.756-7.729-4.388C315.435,239.359,312.692,239.033,309.353,239.477Zm6.878,102.991-.064-.344,3.421-1.905-.275-.628-5.1,1.094a4.826,4.826,0,0,1,.292.851c.041.717.055,1.436.08,2.154a19.95,19.95,0,0,1-1.972-1.249,11.26,11.26,0,0,1-1.273-1.4l-.44.38c1.4,2.2,2.79,4.394,4.352,6.855l3.281-5.625Zm21.283-49.386c-.042-.331-.011-.538-.1-.666a3.712,3.712,0,0,0-.7-.822,95.342,95.342,0,0,0-17.792-11.3,5.9,5.9,0,0,0-1.693-.243ZM190.1,298.224c3.959,2.652,3.959,2.652,9.426,2.766l-8.235-6.045Zm143.283-.131c-.117-.535-.095-.783-.2-.859q-7.11-5.228-14.257-10.4c-.265-.192-.788-.026-1.191-.026l-.216.56c1.149.794,2.31,1.571,3.446,2.382,3.456,2.467,6.895,4.96,10.366,7.407A13.2,13.2,0,0,0,333.384,298.092Zm-25.563-21.436a5.873,5.873,0,0,1,.329,1.325c.015.923.271,2.3-.2,2.662a3.6,3.6,0,0,1-2.959.4,30.688,30.688,0,0,1-4.593-2.612c.142.635.084,1.46.468,1.9a6.781,6.781,0,0,0,6.147,2.511,2.667,2.667,0,0,0,2.624-2.376C309.791,278.921,309.777,277.379,307.821,276.656ZM330.353,299.5l.406-.4a3.347,3.347,0,0,0-.581-.851q-5.713-4.363-11.468-8.675a3.72,3.72,0,0,0-1.345-.537c-.226-.055-.505.111-.761.177.125.3.163.734.389.886,2.846,1.907,5.753,3.727,8.572,5.672C327.228,296.92,328.762,298.253,330.353,299.5Zm4.072-3.312c-1.259-2.924-12.687-10.938-15.535-10.9ZM131.152,332.985c-2.722-3.351-4.979-4.074-8-2.681C125.084,333.242,127.762,334.133,131.152,332.985Zm170.3-62.571a4.553,4.553,0,0,0,.681,1.2,6.416,6.416,0,0,0,6.327.671c1.084-.6,1.979-1.455,1.346-2.77-.571-1.185-1.685-1.029-3.182-.577l1.853,1.108C307.075,271.618,305.42,271.644,301.45,270.414ZM295.336,319.7l.374.7,10.493-.946.068-.559a4.536,4.536,0,0,0-1.351-.464c-2.672-.015-5.347-.026-8.013.122C296.364,318.579,295.859,319.3,295.336,319.7ZM258.658,202.516l.205-.411c-2.122-1.367-4.259-2.712-6.359-4.11-.691-.46-1.224-1.4-1.939-1.528a34.679,34.679,0,0,0-4.812-.28l-.123.454c.665.312,1.581,1.067,1.948.857,1.233-.7,1.973.067,2.827.564,1.841,1.073,3.639,2.219,5.5,3.261A27.74,27.74,0,0,0,258.658,202.516Zm22.391-7.3,6.48.573.122-.548-6.168-4.015ZM130.309,329.93c2.2,3.05,3.725,3.7,6.584,2.749C135.456,329.95,133.239,328.953,130.309,329.93Zm207.038-58.076c-.666-2.621-7.675-7.341-9.958-6.943ZM322.5,233.7l-3.824-5.205-1.893.871C318.524,231.189,318.985,234.245,322.5,233.7Zm-9.046,69.343.46-.73a59.86,59.86,0,0,0-9.961-6.693l-.413.622Zm8.689-61.316c1.508.965,3,1.95,4.535,2.876a1.138,1.138,0,0,0,.986.047c1.195-.76,2.339-1.6,3.5-2.41l-.166-.509C328,243.359,325.1,242.555,322.143,241.732ZM313.628,227.9c.256-.884.427-1.472.6-2.059,1.44.861,2.342.619,3.713-.936-1.795-1.832-3.23.073-4.825.6l.12-.523-1.654-.523-.223.512Zm2.11,73.618c.253-1.905-5.08-6.145-7.967-6.1C310.573,297.557,313.141,299.524,315.739,301.514Zm-61.344-97.625-.478.532,6.979,8.535.387-.312c-1.647-2.376-3.254-4.782-4.966-7.113A10.9,10.9,0,0,0,254.394,203.889Zm-54.689,29,3.564-4.027h-4.79Zm96.889,68.041c-2.162-2.2-4.379-4.273-7.435-5.046C291.531,297.745,293.616,300.027,296.594,300.927Zm-7.462-18.707a1.542,1.542,0,0,0-.414,2.521,2.632,2.632,0,0,0,1.743.57,6.225,6.225,0,0,0,.913-2.655c.019-.712-.158-1.91-1.529-1.491.12.891.227,1.692.334,2.492l-.294.088C289.662,283.29,289.438,282.837,289.132,282.22Zm-76.938-57.355.345.821,9.351-3.994-.29-.7Zm120.371,39.1,5.979,5.61C338.884,268.008,335.394,264.425,332.565,263.97Zm-38.3,70.906,3.886,5.572.427-.3C297.963,337.96,297.687,335.544,294.262,334.876ZM325.5,206.01l-.429.678a26.116,26.116,0,0,0,4.285,2.45c.36-.7.63-1.232.966-1.892Zm11.371,53.079,5.442,4.91C343.378,262.909,341.318,260.666,336.875,259.089Zm-205.014-9.226c-1.236-2.866-3.579-4.329-6.427-5.162Zm182.685-32.419c-1.68-.443-2.979-2.671-5.171-.508C311.176,217.227,312.435,219.7,314.546,217.444Zm-192.528,6.818c1.346.3,2.431.841,3.389.669a16.119,16.119,0,0,0,3.607-1.57C128.688,222.6,125.882,222.711,122.018,224.262ZM110.188,323.5c1.141,1.625,6.737,4.3,8.25,3.981Zm178.726-3.006c-.074-1.31-1.971-1.434-4.914-.324C284.8,321.208,284.854,321.211,288.914,320.495ZM180.2,214.525l6.226,3.093.278-.58C184.641,215.969,182.929,214.158,180.2,214.525Zm-40.5,11.768-.17.327a9.07,9.07,0,0,1,2.2,1.945c.856,1.5,1.809,1.073,3.081.148Zm-13.5-17.518-.118-.429-5.05,1.023.1.586h5.205l-.853-.773Zm73.741-12.206a4,4,0,0,0,5.66-.653Zm94.3,122.153c-1.556.3-3.142-.353-4.006,1.352C292.473,321.018,293.1,320.836,294.237,318.721ZM273.771,209.445l-.231.842c1.87.556,3.455,2.142,6.2,1.37Zm25.195-5.6.25-.6c-1.46-1.869-2.631-2.216-3.966-.979Zm25.832,8.311c1.267,3.385-1.5.85-1.9,1.828l1.7,1.264,2.642-1.734ZM224.353,329.942l-.251.283a8.9,8.9,0,0,1,1.539,1.675c.783,1.47.988,1.573,2.639.517Zm76.763-82.054-.151.6,5.742,2.434.245-.61Zm-31.061-53.355h3.587l-3.587-2.106ZM135.186,224.788l.13-.427c-1.891-.345-3.31-2.244-5.6-1.276Zm40.522-27.531-.2.794,5.454,1.22.12-.531ZM317.684,219.24c-1.195-1.019-2.239-1.31-3.263.028C315.47,220.358,316.509,220.562,317.684,219.24Zm1.47,2.664c1.961,1.885,2.544.49,3.272-.483l-.2-.592Zm-16.627-8.347,2.043.892,1.469-1.37-2.224-1.094C304.7,214.021,303.027,213.006,302.526,213.557Zm3.87-10.7,3.326,1.313C308.8,203.453,308.742,200.532,306.4,202.854Zm-57.838,29.894,3.628,1.273.171-.495C251.219,233.175,250.741,230.91,248.558,232.748ZM231.81,320.464l2.911.5.121-.361-2.068-1.921Zm4.846-124.118-3.591-.611-.1.5C234.182,196.368,235.127,197.807,236.657,196.346Zm73.3,18.232h-3.886C307.992,216.212,307.992,216.212,309.96,214.579Zm11.827-1.783c-1.135-.32-1.9-2.083-3.8-.882C319.5,212.4,320.358,213.71,321.787,212.8Zm-28.776-9.625-.293.736c1.114.42,2,1.533,3.53.72ZM117.881,242.814l3.509-.675-2.257-1.5Zm171.571-34.374.3-.957-3.238-.91-.225.751ZM231.674,325.72c-2.107-2.212-2.437-2.259-2.975-.77C229.7,325.208,230.687,325.463,231.674,325.72Zm54.307-115.88.212-.756-2.9-.887-.211.77ZM170.708,199.057l4.116.822C173.524,199.132,172.345,197.791,170.708,199.057Z" transform="translate(1077.647 689.763)"/>
    <path id="Path_22" data-name="Path 22" class="cls-1" d="M286.751,163.084q8.48,7.358,16.953,14.721c1.791,1.563,3.542,3.172,5.264,4.811a7.436,7.436,0,0,1,.967,1.495l-.418.448a18.739,18.739,0,0,1-1.992-1.253q-19.14-15.563-38.261-31.149a18.559,18.559,0,0,0-2.638-1.955,18.334,18.334,0,0,0-3.38-1.39c-1.134-.355-2.278-.909-1.994-2.141a1.979,1.979,0,0,1,2.574-1.556c.827.277,2.028.7,2.235,1.328.715,2.176,2.671,2.836,4.23,3.972,1.057.771,2.229,1.386,3.349,2.072,2.127,1.7,4.262,3.388,6.378,5.1C282.271,159.408,284.507,161.251,286.751,163.084Zm-21.093-15.726c-1.652-1.736-1.652-1.736-3.773,0Z" transform="translate(1115.097 692.437)"/>
    <path id="Path_23" data-name="Path 23" class="cls-1" d="M285.054,162.19c-2.244-1.834-4.48-3.676-6.733-5.5-2.116-1.712-4.251-3.4-6.378-5.1l-.891-1.4c4,.979,30.313,20.71,31.58,24.064-.584-.4-1.177-.783-1.749-1.2-4.573-3.327-9.13-6.675-13.726-9.971A10.346,10.346,0,0,0,285.054,162.19Z" transform="translate(1116.794 693.332)"/>
    <path id="Path_24" data-name="Path 24" class="cls-1" d="M104.182,198.832c-3.478-3.555-3.191-8.147-3.243-12.646l.661-.177,3.341,12.618Z" transform="translate(1087.475 699.505)"/>
    <path id="Path_25" data-name="Path 25" class="cls-1" d="M152.664,187.006c0-3.971,2.708-11.361,4.922-13.423C158.18,175.453,154.207,186.291,152.664,187.006Z" transform="translate(1096.39 697.363)"/>
    <path id="Path_26" data-name="Path 26" class="cls-1" d="M127.125,146.566c.219.861.172,2.022.722,2.508a4.286,4.286,0,0,0,3.009,1.162c1.041-.164,1.984-1.184,2.845-1.968.11-.1-.53-1.023-.955-1.811.21-.048.916-.442,1.259-.234a2.551,2.551,0,0,1,1.185,1.621c.182,1.926-2.408,3.784-5,3.735-2.469-.048-4.144-1.573-4-3.723a5.6,5.6,0,0,1,.542-1.476Z" transform="translate(1091.826 692.637)"/>
    <path id="Path_27" data-name="Path 27" class="cls-1" d="M144.764,175.054c-.379,4.449-.728,8.545-1.1,12.956C141.66,185.667,142.362,176.986,144.764,175.054Z" transform="translate(1094.637 697.616)"/>
    <path id="Path_28" data-name="Path 28" class="cls-1" d="M171.434,151.181c1.886.037,3.128.855,3.171,2.124.046,1.345-1.164,2.368-3.009,2.546-2.616.251-4.307-.463-5.075-2.294.5.145.873.249,1.246.367.517.164,1.057.537,1.542.471,1.246-.169,2.465-.53,3.7-.815Z" transform="translate(1098.778 693.502)"/>
    <path id="Path_29" data-name="Path 29" class="cls-1" d="M202.67,136.794c1.393-.293,2.341.666,3.075,1.672a2.786,2.786,0,0,1,.136,1.913,9.287,9.287,0,0,1-3.548.483,1.741,1.741,0,0,1-1.681-2.186l3.727,1.4.518-.837-2.461-1.932Z" transform="translate(1104.649 691.013)"/>
    <path id="Path_30" data-name="Path 30" class="cls-1" d="M155.92,140.015c-1.138,2.26-2.263,3.355-4.167,3.066-.513-.079-1.386-.528-1.375-.777.023-.565.394-1.489.8-1.6A39.757,39.757,0,0,1,155.92,140.015Z" transform="translate(1095.996 691.577)"/>
    <path id="Path_31" data-name="Path 31" class="cls-1" d="M230.73,155.664c2.022.069,3.107.635,3.134,2.068.008.424-.994,1.172-1.6,1.243-1.4.162-3.25-1.219-2.914-2.061C229.613,156.263,230.5,155.862,230.73,155.664Z" transform="translate(1109.6 694.275)"/>
    <path id="Path_32" data-name="Path 32" class="cls-1" d="M201.849,150.024h-1.895c.445,1.481,1.376,2.444,2.735,2.008,1.652-.531,1.156-1.837.251-2.994l.39-.237c.328.261.9.495.936.79a4.446,4.446,0,0,1-.161,2.375,2.065,2.065,0,0,1-2.972.864,9.864,9.864,0,0,1-2.423-2.684c-.11-.148.39-1.086.631-1.095a15.674,15.674,0,0,1,2.613.287Z" transform="translate(1104.323 693.092)"/>
    <path id="Path_33" data-name="Path 33" class="cls-1" d="M170.652,141.655c1.487.266,2.57.488,3.664.634.25.033.533-.193,1.313-.5l-3.274-.981c.78-1.134,1.973-.85,2.9-.433.63.283.992,1.158,1.474,1.769a8.5,8.5,0,0,1-2.376,1.238A3.687,3.687,0,0,1,170.652,141.655Z" transform="translate(1099.49 691.576)"/>
    <path id="Path_34" data-name="Path 34" class="cls-1" d="M184.062,177.081l1.509,7.593c-2.179-.577-2.992-4.569-2.008-7.6Z" transform="translate(1101.644 697.964)"/>
    <path id="Path_35" data-name="Path 35" class="cls-1" d="M243.48,144.613l2.3.177c-.552-.87-1.2-1.892-1.858-2.925,1.616-.077,3.781,2.381,3.116,3.652-.264.505-1.359.776-2.076.777-.546,0-1.093-.594-1.639-.924Z" transform="translate(1112.015 691.896)"/>
    <path id="Path_36" data-name="Path 36" class="cls-1" d="M116.9,151.89c-.292.727-.4,1.842-.92,2.094a4.708,4.708,0,0,1-3,.3c-.642-.164-1.107-1.127-1.573-1.787-.082-.115.164-.661.349-.719a1.217,1.217,0,0,1,.972.137c2.047,1.566,2.1,1.576,3.564-.2Z" transform="translate(1089.275 693.593)"/>
    <path id="Path_37" data-name="Path 37" class="cls-1" d="M100.794,161.815a20.324,20.324,0,0,1-3,1.5c-.253.084-1.1-.712-1.175-1.182-.161-1.021,1.355-2.22,2.5-2a5.66,5.66,0,0,1,1.627.955Z" transform="translate(1086.729 695.041)"/>
    <path id="Path_38" data-name="Path 38" class="cls-1" d="M218.21,138.344c3.341,1.4,6.263,1.931,9.179-.056.34,1.5-.853,1.716-1.714,2C222.962,141.186,219.487,140.4,218.21,138.344Z" transform="translate(1107.687 691.28)"/>
    <path id="Path_39" data-name="Path 39" class="cls-1" d="M227.22,179.348c.576,2.09,1.019,3.7,1.465,5.326C226.776,184.284,226.247,182.734,227.22,179.348Z" transform="translate(1109.157 698.356)"/>
    <path id="Path_40" data-name="Path 40" class="cls-1" d="M148.813,154.12c.851.048,2.068,1.666,2.245-1.175l.5.66c.067.487.361,1.161.15,1.416a1.923,1.923,0,0,1-1.514.674c-.593-.116-1.1-.7-1.638-1.079Z" transform="translate(1095.682 693.806)"/>
    <path id="Path_41" data-name="Path 41" class="cls-1" d="M159.658,162.922c.229.831.475,1.658.645,2.5a4.484,4.484,0,0,1-.859.352q-.3-1.31-.6-2.621Z" transform="translate(1097.455 695.525)"/>
    <path id="Path_42" data-name="Path 42" class="cls-1" d="M102.009,351.765l.812-.1c-3.321-7.188-3.274-14.875-3.875-22.594a3.515,3.515,0,0,1,.736.152c.165,2.59,2.028,4.63,1.81,7.511a37.158,37.158,0,0,0,1.951,13.85,6.327,6.327,0,0,1,.1,1.492Z" transform="translate(1087.132 724.162)"/>
    <path id="Path_43" data-name="Path 43" class="cls-1" d="M82.876,238.95a2.4,2.4,0,0,1-2.3-1.579,46.517,46.517,0,0,0-3.638-4.958,26.844,26.844,0,0,1-3.008-4.9l1.318.513c2.5,3.069,5.02,6.118,7.457,9.236C83,237.636,82.829,238.377,82.876,238.95Z" transform="translate(1082.819 706.657)"/>
    <path id="Path_44" data-name="Path 44" class="cls-1" d="M94.185,308.462l-2.23.477v8.774c-1.865-.732-2.317-4.839-.9-8.9Z" transform="translate(1085.628 720.609)"/>
    <path id="Path_45" data-name="Path 45" class="cls-1" d="M298.678,213.33q-2.6-3.259-5.2-6.516l.671-.6c1.007,1.082,2.029,2.151,3.018,3.252.673.748,1.3,1.539,1.944,2.312Z" transform="translate(1120.658 702.988)"/>
    <path id="Path_46" data-name="Path 46" class="cls-1" d="M299.422,208.354c-1.7-1.3-3.272-2.694-3.689-4.886l.393-.341,3.668,3.644Q299.608,207.561,299.422,208.354Z" transform="translate(1121.048 702.455)"/>
    <path id="Path_47" data-name="Path 47" class="cls-1" d="M184.359,262.907l-4.5-2.288c1.257-1.03,2.62-.612,4.482,1.263Z" transform="translate(1101.077 712.269)"/>
    <path id="Path_48" data-name="Path 48" class="cls-1" d="M290.878,319.22a5.873,5.873,0,0,1,.635,2.026c-.286,3.634-.548,7.283-1.1,10.883-.984,6.433-2.157,12.836-3.28,19.246a6.952,6.952,0,0,1-.72,2.24,1.929,1.929,0,0,1-1.336.832c-.251.019-.805-.734-.805-1.138,0-3.627.035-7.256.182-10.879a23.289,23.289,0,0,1,.831-3.73l1.317,2.271c1.309-7.43,2.545-14.45,3.782-21.469Z" transform="translate(1119.073 722.463)"/>
    <path id="Path_49" data-name="Path 49" class="cls-1" d="M126.334,355.727q-2.988-16.2-5.974-32.4l.78-.218a26.191,26.191,0,0,1,1.188,3.21q2.829,12.136,5.538,24.3a12.6,12.6,0,0,1,.106,3.634,4.9,4.9,0,0,1-.8,1.61Z" transform="translate(1090.822 723.134)"/>
    <path id="Path_50" data-name="Path 50" class="cls-1" d="M179.932,338.2c.088.326.176.653.264.978.46-.144.917-.285,1.375-.427.087.44.4,1.018.226,1.3-1.931,3.147-.549,6.409-.366,9.606.152,2.665.6,5.311.869,7.971a7.01,7.01,0,0,1-.232,1.66l-.525.122c-.339-.566-.921-1.11-.979-1.7q-.848-8.787-1.516-17.591a6.17,6.17,0,0,1,.478-1.883Z" transform="translate(1100.936 725.734)"/>
    <path id="Path_51" data-name="Path 51" class="cls-1" d="M187.484,338.281c.441,6,.9,12,1.306,18a9.448,9.448,0,0,1-.239,2.7c-.07.308-.659.5-1.011.743-.189-.324-.512-.635-.545-.973-.359-3.8-.818-7.606-.948-11.42a60.112,60.112,0,0,1,.525-7.6,6.176,6.176,0,0,1,.61-1.579Z" transform="translate(1102.141 725.726)"/>
    <path id="Path_52" data-name="Path 52" class="cls-1" d="M193.435,345.028c1.287,1.9,1.23,9.427-.082,10.8C192.387,354.6,192.444,347.164,193.435,345.028Z" transform="translate(1103.283 726.911)"/>
    <path id="Path_53" data-name="Path 53" class="cls-1" d="M148.731,342.975c-1.292-3.653,1.356-6.911,1.524-10.474.991.94.743,2.081.558,3.183-.21,1.25-.489,2.488-.742,3.73q-.361,1.767-.729,3.532Z" transform="translate(1095.651 724.752)"/>
    <path id="Path_54" data-name="Path 54" class="cls-1" d="M134.622,338.394c-.631-3.34,1.261-5.971,2.411-8.814C137.515,332.857,136.258,335.677,134.622,338.394Z" transform="translate(1093.259 724.249)"/>
    <path id="Path_55" data-name="Path 55" class="cls-1" d="M216.794,316.561c.242-2.424.465-4.852.756-7.271a.911.911,0,0,1,.735-.511,1.047,1.047,0,0,1,.631.741,16.871,16.871,0,0,1-1.224,7.122Z" transform="translate(1107.443 720.663)"/>
    <path id="Path_56" data-name="Path 56" class="cls-1" d="M95.582,318.522c-1.7-2.277-1.68-8.051,0-9.754Z" transform="translate(1086.333 720.662)"/>
    <path id="Path_57" data-name="Path 57" class="cls-1" d="M213.826,318.105a18.5,18.5,0,0,1,1.049-9.036l.709.075-.992,9.075Z" transform="translate(1106.902 720.714)"/>
    <path id="Path_58" data-name="Path 58" class="cls-1" d="M216.766,348.413a13.9,13.9,0,0,1,.21-6.965c.035-.152.53-.339.74-.274.226.069.539.434.518.638-.239,2.224-.537,4.442-.818,6.662Z" transform="translate(1107.376 726.245)"/>
    <path id="Path_59" data-name="Path 59" class="cls-1" d="M129.51,305.939q.526,3.371,1.049,6.73C128.708,312.825,127.779,309.319,129.51,305.939Z" transform="translate(1092.241 720.174)"/>
    <path id="Path_60" data-name="Path 60" class="cls-1" d="M209.382,315.709c-.048-2.308-.755-4.655.778-6.872v6.939Z" transform="translate(1106.13 720.674)"/>
    <path id="Path_61" data-name="Path 61" class="cls-1" d="M206.469,338.791c-1.226-1.428-1.257-4.754-.2-6.239C207.247,333.516,207.247,333.516,206.469,338.791Z" transform="translate(1105.498 724.761)"/>
    <path id="Path_62" data-name="Path 62" class="cls-1" d="M149.22,318.984c.215-1.287.376-2.589.681-3.855.083-.349.593-.6.906-.891.244.416.783.94.679,1.23-.461,1.268-1.108,2.469-1.688,3.694Z" transform="translate(1095.796 721.605)"/>
    <path id="Path_63" data-name="Path 63" class="cls-1" d="M127.982,323.546c-.275-1.7-.529-3.264-.828-5.1C129.278,319.579,129.526,321.762,127.982,323.546Z" transform="translate(1091.993 722.33)"/>
    <path id="Path_64" data-name="Path 64" class="cls-1" d="M165.842,326.969c-1.685-.9-2.225-2.151-1.465-3.572.171-.319.587-.505.891-.753a3.594,3.594,0,0,1,.547,1.148C165.894,324.808,165.842,325.836,165.842,326.969Z" transform="translate(1098.35 723.054)"/>
    <path id="Path_65" data-name="Path 65" class="cls-1" d="M115.914,314.331c-1.578-2.254-1.367-4.937.274-5.216Z" transform="translate(1089.87 720.722)"/>
    <path id="Path_66" data-name="Path 66" class="cls-1" d="M185.36,324.3a6.612,6.612,0,0,1,.322,1.9c-.175,1.393-.483,1.594-2.358,2.054l1.4-3.791Z" transform="translate(1101.674 723.338)"/>
    <path id="Path_67" data-name="Path 67" class="cls-1" d="M251.914,314.663c1.906.773,2.163,2.07.939,4.64Z" transform="translate(1113.495 721.678)"/>
    <path id="Path_68" data-name="Path 68" class="cls-1" d="M170.028,339.535c1.883,1.739.247,3.055.205,4.771C168.849,342.644,169.435,341.308,170.028,339.535Z" transform="translate(1099.271 725.965)"/>
    <path id="Path_69" data-name="Path 69" class="cls-1" d="M247.791,343.419c.275-1.2.552-2.4.843-3.671C250.449,340.733,250.259,341.865,247.791,343.419Z" transform="translate(1112.785 726.001)"/>
    <path id="Path_70" data-name="Path 70" class="cls-1" d="M98.281,328.579a30.473,30.473,0,0,1-.38-3.041c-.012-.372.381-.759.59-1.138.258.334.739.671.735,1-.009,1.1-.193,2.2-.31,3.3Z" transform="translate(1086.951 723.356)"/>
    <path id="Path_71" data-name="Path 71" class="cls-1" d="M195.258,327.371l.434-4.278.667.049c.882,1.448.055,2.821-.281,4.216Z" transform="translate(1103.731 723.131)"/>
    <path id="Path_72" data-name="Path 72" class="cls-1" d="M297.353,327.947l-.5,4.129-.674-.093c.134-1.387-.573-2.882.414-4.157Z" transform="translate(1121.103 723.947)"/>
    <path id="Path_73" data-name="Path 73" class="cls-1" d="M266.412,324.143c1.285,1.736,1.077,2.675-.638,3.658Z" transform="translate(1115.884 723.312)"/>
    <path id="Path_74" data-name="Path 74" class="cls-1" d="M121.206,339.933l-.727-3.422C122.213,337.062,122.451,337.935,121.206,339.933Z" transform="translate(1090.843 725.443)"/>
    <path id="Path_75" data-name="Path 75" class="cls-1" d="M236.125,250.484c.5.641.668,1.1.945,1.177,1.216.346,2.46.6,3.7.853.54.11,1.433-.115.7.928.494.281.982.793,1.482.8a4.878,4.878,0,0,1,4.7,3.145,14.735,14.735,0,0,0,1.909,2.423,4.076,4.076,0,0,1,.834,1.852c-10.01-4.529-18.626-11.187-27.41-17.638Z" transform="translate(1108.51 709.504)"/>
    <path id="Path_76" data-name="Path 76" class="cls-1" d="M208.389,255.833c.553.294,1.131.552,1.657.89,2.654,1.709,5.265,3.488,7.963,5.124.617.375,1.535.216,2.272.44.6.179,1.57.512,1.614.872.281,2.266,2.672,2.192,3.753,3.529a5.762,5.762,0,0,0,1.094-.574l-.15-.678,1.864.59-.809,2.517,8.82,7.968a4.4,4.4,0,0,1-3.448-1.681,63.992,63.992,0,0,0-6.926-6.128c-.346-.286-1.053-.161-1.594-.184a5.612,5.612,0,0,1-5.606-4.355,2.674,2.674,0,0,0-1.061-1.133c-3.211-2.281-6.442-4.533-9.667-6.795Z" transform="translate(1105.955 711.539)"/>
    <path id="Path_77" data-name="Path 77" class="cls-1" d="M226.291,276.4a17.08,17.08,0,0,1-3.767-1c-7.562-3.993-15.068-8.093-22.592-12.158-.428-.231-.845-.637-1.287-.665-1.794-.114-2.09-1.213-1.885-2.877,5.776,3.276,11.5,6.551,17.249,9.769,3.741,2.093,7.531,4.1,11.289,6.158a7.323,7.323,0,0,1,.985.788Z" transform="translate(1103.98 712.204)"/>
    <path id="Path_78" data-name="Path 78" class="cls-1" d="M216.278,248.1c3-.975,5,.861,7.169,2.2,1.033.638,2.042,1.314,3.084,1.934,3.1,1.846,2.247,2.244,5.651-.349,1.189.545.748,1.224.156,1.944-.406.495-.776,1.018-1.448,1.9l-7.756-.671-.025-.934,2.774-.225Z" transform="translate(1107.354 710.159)"/>
    <path id="Path_79" data-name="Path 79" class="cls-1" d="M210.4,252.657a9.411,9.411,0,0,1,2.555.687c4.257,2.584,8.437,5.3,12.7,7.875.578.351,1.462.184,2.2.287a1.7,1.7,0,0,1,.77.257c2.406,1.822,4.8,3.662,7.191,5.5l-.278.443-25.34-14.26Z" transform="translate(1106.305 710.991)"/>
    <path id="Path_80" data-name="Path 80" class="cls-1" d="M237.988,250.327c-3.994-2.206-7.6-4.041-11.042-6.143-3.555-2.171-6.951-4.6-10.72-7.122C218.933,237.088,233.791,246.229,237.988,250.327Z" transform="translate(1107.345 708.303)"/>
    <path id="Path_81" data-name="Path 81" class="cls-1" d="M244.161,265.482l-16.093-9.674.329-.582c1.29.721,2.573,1.45,3.868,2.161.8.437,1.617.831,2.41,1.272.993.552,1.491.293,1.446-1.525l8.469,7.728Z" transform="translate(1109.386 711.434)"/>
    <path id="Path_82" data-name="Path 82" class="cls-1" d="M179.289,246.184c1.571.4,3.23,2.815,2.828,4.229-.352,1.238-2.191,1.862-4.049,1.577a7.221,7.221,0,0,1-4.753-2.76,6.1,6.1,0,0,1-.646-1.625,30.784,30.784,0,0,0,4.359,1.577,9.406,9.406,0,0,0,2.923-.331C179.735,247.981,179.519,247.112,179.289,246.184Z" transform="translate(1099.838 709.876)"/>
    <path id="Path_83" data-name="Path 83" class="cls-1" d="M174.352,260.634l-1.217-2.209c1.579.475,2.735,1,2.747,2.737a3.638,3.638,0,0,1-3.229,3.56c-2.667.286-4.468-.422-7.109-2.846l1.064-1.227c1.22.577,2.185,1.045,3.161,1.489a6.3,6.3,0,0,0,1.835.72,7.485,7.485,0,0,0,1.985-.329Z" transform="translate(1098.61 711.985)"/>
    <path id="Path_84" data-name="Path 84" class="cls-1" d="M223.651,244.757l-1.6,2,6.279,4.449-.272.4q-2.286-1.407-4.572-2.815c-.619-.38-1.21-1.007-1.866-1.087a7.445,7.445,0,0,1-6.068-4.027c.2-.033.775.041,1.105-.208,1.274-.955,1.821-.329,2.261.851.55,1.471,1.375,1.671,2.706.756a17.441,17.441,0,0,1,1.579-.87Z" transform="translate(1107.229 709.327)"/>
    <path id="Path_85" data-name="Path 85" class="cls-1" d="M169.78,240.86l-1.53-.607.36-.757c.78.115,1.939-.035,2.249.408a3.087,3.087,0,0,1,.332,2.586c-.925,2.064-5.756,2.3-7.068.437a1.122,1.122,0,0,1-.147-.982,1.343,1.343,0,0,1,.978-.576,5.3,5.3,0,0,1,1.924.407C168.279,242.386,168.294,242.42,169.78,240.86Z" transform="translate(1098.328 708.723)"/>
    <path id="Path_86" data-name="Path 86" class="cls-1" d="M171.957,264.355c2.755,2.708,8.453.558,8.416-3.061,1.491.231,1.161,1.291.955,2.149-.6,2.485-4.4,4.376-7.43,3.685C172.612,266.833,171.413,266.348,171.957,264.355Z" transform="translate(1099.692 712.48)"/>
    <path id="Path_87" data-name="Path 87" class="cls-1" d="M157.963,255.182c.864,2.374,3.087,2.871,5.777,1.157l-1.991-.95c1.353-.726,2.5-.785,3.245.383a1.578,1.578,0,0,1-1.2,2.483,15.426,15.426,0,0,1-5.637-.093C156.589,257.783,156.6,256.065,157.963,255.182Z" transform="translate(1097.13 711.372)"/>
    <path id="Path_88" data-name="Path 88" class="cls-1" d="M213.342,247.911l-3.469-1.166a4.327,4.327,0,0,0,3.225,3.232c1.8.706,1.978-1,2.621-2.428l1.04,2.261c-3.45,1.667-4.9,1.637-6.871-.472-.587-.628-1.231-1.85-.984-2.433a2.919,2.919,0,0,1,2.382-1.133A2.082,2.082,0,0,1,213.342,247.911Z" transform="translate(1106.074 709.804)"/>
    <path id="Path_89" data-name="Path 89" class="cls-1" d="M202.027,255.366c.736.087,1.767-.089,2.134.325a2.64,2.64,0,0,1,.388,2.26c-1.089,2.925-5.651,3.36-7.888.475,2.623.724,4.958,1.012,6.661-1.551l-1.394-.776Z" transform="translate(1103.973 711.458)"/>
    <path id="Path_90" data-name="Path 90" class="cls-1" d="M198.306,248.3l.736,1.008c-1.739,1.257-4.767,1.249-6.191-.151a3.061,3.061,0,0,1-.763-2.043c.007-.515.639-1.019,1.24-1.883.457,2.977,1.307,3.4,4.28,2.7Z" transform="translate(1103.184 709.712)"/>
    <path id="Path_91" data-name="Path 91" class="cls-1" d="M196.916,239.122l5.145.858-.07.79a13.153,13.153,0,0,0-1.443.009,12.267,12.267,0,0,1-2.273.32c-.889-.073-2.069-.166-2.543-.735s-.346-1.75-.243-2.635c.023-.205,1.014-.3,1.559-.443C197.011,237.809,196.974,238.333,196.916,239.122Z" transform="translate(1103.754 708.342)"/>
    <path id="Path_92" data-name="Path 92" class="cls-1" d="M214.859,239.355c-1.606-.947-2.963-1.033-4.137.729-.27.4-1.322.355-2.018.368-.215,0-.676-.589-.618-.713.268-.564.583-1.358,1.064-1.519a13.728,13.728,0,0,1,4.189-.838c.63,0,1.265.936,1.9,1.447Z" transform="translate(1105.941 708.359)"/>
    <path id="Path_93" data-name="Path 93" class="cls-1" d="M199.784,251.016c4.176-.268,4.176-.268,4.7-1.59l-1.675-.448,2.356-.9a6.638,6.638,0,0,1,.642,2.094,2.7,2.7,0,0,1-3.1,2.367,20.148,20.148,0,0,1-3.1-1.032Z" transform="translate(1104.48 710.202)"/>
    <path id="Path_94" data-name="Path 94" class="cls-1" d="M174.841,252.633c-1.719,1.634-5.074,1.465-6.415-.138a2.3,2.3,0,0,1,.143-3.546C169.01,253.073,172.167,252.153,174.841,252.633Z" transform="translate(1098.974 710.352)"/>
    <path id="Path_95" data-name="Path 95" class="cls-1" d="M214.79,252.409l.775-1.277,8.715,6.182-.312.428Z" transform="translate(1107.097 710.728)"/>
    <path id="Path_96" data-name="Path 96" class="cls-1" d="M203.341,238.424c-.42-1.21-.693-1.918-.91-2.644-.177-.594-.555-1.334-.346-1.775.186-.4,1.05-.47,1.735-.558-.934,1.026-.945,1.76.21,2.517a5.708,5.708,0,0,1,1.144,1.489Z" transform="translate(1104.897 707.68)"/>
    <path id="Path_97" data-name="Path 97" class="cls-1" d="M206.492,258.464l5.93.793c-.3.372-.54.975-.955,1.137C209.316,261.232,207.9,259.784,206.492,258.464Z" transform="translate(1105.667 711.992)"/>
    <path id="Path_98" data-name="Path 98" class="cls-1" d="M197.744,248.424l-.7-.367c.495-1.379.281-1.74-1.7-2.886,1.449-1.206,2.816-.68,3.929,1.318Z" transform="translate(1103.747 709.59)"/>
    <path id="Path_99" data-name="Path 99" class="cls-1" d="M159.575,261.817l-5.216-2.375C156.127,258.175,158.731,259.256,159.575,261.817Z" transform="translate(1096.682 712.069)"/>
    <path id="Path_100" data-name="Path 100" class="cls-1" d="M247.306,252.454c-2.148-1.515-4.784-2.4-5.937-5.195l6.215,4.8Z" transform="translate(1111.678 710.061)"/>
    <path id="Path_101" data-name="Path 101" class="cls-1" d="M216.092,259.552q-2.629-1.767-5.259-3.532l.4-.6A7.863,7.863,0,0,1,216.092,259.552Z" transform="translate(1106.415 711.467)"/>
    <path id="Path_102" data-name="Path 102" class="cls-1" d="M173.485,260.5l-.763,1.895c-.4-.448-1.8-.009-1.178-1.427.105-.239-.627-.845-.972-1.281l.258-.464Z" transform="translate(1099.476 712.122)"/>
    <path id="Path_103" data-name="Path 103" class="cls-1" d="M209.3,263.148l5.709,3.383-.306.529L208.95,263.8Z" transform="translate(1106.091 712.799)"/>
    <path id="Path_104" data-name="Path 104" class="cls-1" d="M208.309,232.767c-1.2.091-2.4.244-3.6.242a4.64,4.64,0,0,1-1.457-.523l.7-.938,4.476.972Z" transform="translate(1105.108 707.353)"/>
    <path id="Path_105" data-name="Path 105" class="cls-1" d="M201.271,255l-4.7-2.785.326-.571,4.795,2.737Z" transform="translate(1103.958 710.817)"/>
    <path id="Path_106" data-name="Path 106" class="cls-1" d="M124.608,245.547l-2.358-.236a12.381,12.381,0,0,1,.924,1.107c.347.558,1.672.759.679,1.873-.1.118.385.821.657,1.211,2.684,3.835,5.387,7.657,8.059,11.5a18.951,18.951,0,0,1,1.043,2.079c-3.557-4.1-6.73-7.861-10.015-11.518-2.424-2.7-5-5.259-7.494-7.9-.433-.457-1.236-.845-.455-1.7.094-.1-.182-.662-.4-.912-1.877-2.158-3.793-4.284-5.662-6.448a12.021,12.021,0,0,1-.993-1.574l.545-.388,8.755,9.549.476-.4c-.805-2.481-3.171-3.912-4.287-6.236Z" transform="translate(1088.794 707.542)"/>
    <path id="Path_107" data-name="Path 107" class="cls-1" d="M116.561,251.587l2.149,1.263a5.026,5.026,0,0,0,.075-1.868,33.014,33.014,0,0,0-2.094-4.251,12.68,12.68,0,0,0-1.8-2.049c-2.205-2.354-4.422-4.7-6.617-7.06-.127-.137-.09-.426.22-.894.95,1.1,1.868,2.225,2.855,3.287,2.158,2.322,4.083,4.98,6.6,6.816,2.892,2.107,3.8,5.5,6.161,7.915,1,1.029,1.142,2.906,1.729,4.555l-5.227-5.717c-.964.722-.945.708.068,2.028.531.692.984,1.443,1.691,2.492-2.113-.94-2.261-3.886-5.141-3.389.477.654,1.2,1.227,1.108,1.589-.646,2.476,1.586,3.383,2.586,4.913,1.129,1.726,2.526,3.273,3.793,4.91a1.4,1.4,0,0,1,.3,1.227L111.8,251.475V248.91l4,2.356Z" transform="translate(1088.727 708.246)"/>
    <path id="Path_108" data-name="Path 108" class="cls-1" d="M102.286,241.731c-1.51-.052-2.722-.812-2.8-2.253-.041-.747.911-1.754,1.669-2.263.476-.319,1.447-.018,2.159.156,1.973.481,3.974,1.007,5.128,2.891a2.009,2.009,0,0,1,.166,1.687c-.893,1.6-4.4,1.592-5.614.068l3.988-.389c-1.475-2.5-4.164-3.371-5.072-1.947.637,1.5,3.113-1.086,3.423,1.836C104.043,240.465,103.058,240.517,102.286,241.731Z" transform="translate(1087.224 708.306)"/>
    <path id="Path_109" data-name="Path 109" class="cls-1" d="M106.011,256.159c1.641-1.485-.382-2.311-.327-3.71l8.222,10.527C109.207,261.172,108.752,260.773,106.011,256.159Z" transform="translate(1088.293 710.955)"/>
    <path id="Path_110" data-name="Path 110" class="cls-1" d="M93.764,248.485l2.072,4.7a2.391,2.391,0,0,1-2.893-2.014C92.73,250.24,92.211,248.861,93.764,248.485Z" transform="translate(1086.053 710.272)"/>
    <path id="Path_111" data-name="Path 111" class="cls-1" d="M115.791,249.971l-.756-.32-2.369-3.521A2.908,2.908,0,0,1,115.791,249.971Z" transform="translate(1089.496 709.861)"/>
    <path id="Path_112" data-name="Path 112" class="cls-1" d="M106.451,242.818l2.619,3.648C106.409,245.465,105.479,244.184,106.451,242.818Z" transform="translate(1088.36 709.296)"/>
    <path id="Path_113" data-name="Path 113" class="cls-1" d="M132.465,250.152l2.975,3.883-.453.338q-1.532-1.9-3.061-3.8Z" transform="translate(1092.816 710.56)"/>
    <path id="Path_114" data-name="Path 114" class="cls-1" d="M91.133,203.242c2.3,2.475,4.967,4.291,6.455,7.666C95.6,210.159,91.085,204.79,91.133,203.242Z" transform="translate(1085.785 702.475)"/>
    <path id="Path_115" data-name="Path 115" class="cls-1" d="M190.295,195.8c2.151,0,6.034,4.339,6.1,6.824Z" transform="translate(1102.875 701.193)"/>
    <path id="Path_116" data-name="Path 116" class="cls-1" d="M194.732,194.071a14.477,14.477,0,0,1,4.754,7.179l-.5.335-4.715-7.157Z" transform="translate(1103.561 700.894)"/>
    <path id="Path_117" data-name="Path 117" class="cls-1" d="M189.072,197.242c1.368,1.936,3.144,3.628,3.7,6.049l-.5.306-3.973-5.91Z" transform="translate(1102.531 701.44)"/>
    <path id="Path_118" data-name="Path 118" class="cls-1" d="M91.111,206.227a17.019,17.019,0,0,1,3.46,4.537l-.563.451-3.593-4.43Z" transform="translate(1085.661 702.989)"/>
    <path id="Path_119" data-name="Path 119" class="cls-1" d="M185.677,198.523c2,.406,3.283,2.9,2.886,5.294Z" transform="translate(1102.08 701.661)"/>
    <path id="Path_120" data-name="Path 120" class="cls-1" d="M240.274,210.724c-1.828-1.032-10.891-12.861-10.654-13.905C231.721,198.109,240.29,209.293,240.274,210.724Z" transform="translate(1109.652 701.368)"/>
    <path id="Path_121" data-name="Path 121" class="cls-1" d="M68.849,233.74c2.171,3.312,5.611,5.842,6.292,10.314C73.4,243.707,68.457,235.637,68.849,233.74Z" transform="translate(1081.94 707.731)"/>
    <g id="Group_8" data-name="Group 8" transform="translate(1115.207 727.157)">
      <g id="Group_6" data-name="Group 6">
        <path id="Path_122" data-name="Path 122" class="cls-2" d="M38.494,76.138a303.426,303.426,0,0,0,45.429,59.274" transform="translate(-38.494 -46.589)"/>
        <path id="Path_123" data-name="Path 123" class="cls-2" d="M298.639,96.762l-10.131,19.169" transform="translate(4.596 -43.034)"/>
        <path id="Path_124" data-name="Path 124" class="cls-2" d="M228.754,102.155a327.835,327.835,0,0,1,27.084-45.391" transform="translate(-5.703 -49.928)"/>
        <path id="Path_125" data-name="Path 125" class="cls-2" d="M302.39,133.853a327.894,327.894,0,0,1,34.972-39.634" transform="translate(6.988 -43.473)"/>
        <path id="Path_126" data-name="Path 126" class="cls-2" d="M161.766,95.7,147.332,50.933" transform="translate(-19.736 -50.933)"/>
      </g>
      <g id="Group_7" data-name="Group 7" transform="translate(78.794 18.639)">
        <path id="Path_127" data-name="Path 127" class="cls-2" d="M244.149,106.6l8.958,4.421,1.436,9.885,6.973-7.153,9.845,1.689-4.648-8.842,4.648-8.842-9.845,1.689-6.973-7.153-1.436,9.885Z" transform="translate(-81.843 -62.444)"/>
        <path id="Path_128" data-name="Path 128" class="cls-2" d="M105.7,106.6l8.958,4.421L116.1,120.9l6.973-7.153,9.845,1.689-4.648-8.842,4.648-8.842-9.845,1.689L116.1,92.292l-1.436,9.885Z" transform="translate(-105.704 -62.444)"/>
        <path id="Path_129" data-name="Path 129" class="cls-2" d="M175.457,81.138l8.958,4.421,1.436,9.885,6.973-7.153,9.845,1.689-4.648-8.842,4.648-8.842-9.845,1.689-6.973-7.153-1.436,9.885Z" transform="translate(-93.683 -66.832)"/>
      </g>
    </g>
  </g>
</svg>
