<svg xmlns="http://www.w3.org/2000/svg" width="286.049" height="77.039" viewBox="0 0 286.049 77.039">
  <defs>
    <style>
      .cls-1 {
        fill: #c88e46;
      }

      .cls-2 {
        fill: #fff;
      }
    </style>
  </defs>
  <g id="logo" transform="translate(-11.45 -9)">
    <g id="Group_1" data-name="Group 1" transform="translate(11.45 9)">
      <path id="Path_1" data-name="Path 1" class="cls-1" d="M40.346,34.668C40.346,20.5,33.874,9,25.9,9S11.45,20.5,11.45,34.668A14.406,14.406,0,0,0,20.781,48.13L19.477,79.6a6.421,6.421,0,1,0,12.843,0l-1.3-31.471A14.39,14.39,0,0,0,40.346,34.668Z" transform="translate(-11.45 -9)"/>
      <path id="Path_2" data-name="Path 2" class="cls-1" d="M50.061,32.277,50.864,9h4.013l.8,23.277a12.006,12.006,0,0,1-7.14,10.97l1.522,36.371a6.421,6.421,0,1,1-12.843,0L38.74,43.247a12.034,12.034,0,0,1-7.14-10.97L32.4,9h4.013l.8,23.277h3.211L41.232,9h4.816l.8,23.277Z" transform="translate(2.095 -9)"/>
    </g>
    <g id="Group_2" data-name="Group 2" transform="translate(87.168 25.271)">
      <path id="Path_3" data-name="Path 3" class="cls-2" d="M56.73,35.93V18.89h3.612V32.937h6.906v2.977H56.73Z" transform="translate(-56.73 -18.622)"/>
      <path id="Path_4" data-name="Path 4" class="cls-2" d="M83.42,27.492A9.3,9.3,0,0,1,81.33,34a7.756,7.756,0,0,1-6.02,2.274A7.78,7.78,0,0,1,69.29,34c-1.4-1.522-2.09-3.7-2.09-6.522s.7-5,2.107-6.5a7.9,7.9,0,0,1,6.037-2.241,7.744,7.744,0,0,1,6,2.257A9.375,9.375,0,0,1,83.42,27.492Zm-12.441,0a7.1,7.1,0,0,0,1.087,4.3,3.774,3.774,0,0,0,3.244,1.438c2.876,0,4.331-1.923,4.331-5.752s-1.438-5.752-4.3-5.752A3.785,3.785,0,0,0,72.1,23.178,7.025,7.025,0,0,0,70.979,27.492Z" transform="translate(-49.692 -18.73)"/>
      <path id="Path_5" data-name="Path 5" class="cls-2" d="M85.472,29.392V35.93H81.86V18.89h4.966a8.407,8.407,0,0,1,5.134,1.271,4.533,4.533,0,0,1,1.672,3.846,4.524,4.524,0,0,1-.819,2.676,5.547,5.547,0,0,1-2.341,1.839q3.838,5.744,5.017,7.425H91.475l-4.063-6.538h-1.94Zm0-2.926h1.171a4.406,4.406,0,0,0,2.525-.569,2.032,2.032,0,0,0,.819-1.789,1.867,1.867,0,0,0-.836-1.722,5.122,5.122,0,0,0-2.575-.518H85.489v4.6Z" transform="translate(-39.837 -18.622)"/>
      <path id="Path_6" data-name="Path 6" class="cls-2" d="M103.956,35.93H94.14V18.89h9.816v2.96h-6.2V25.6h5.769v2.96H97.752v4.4h6.2Z" transform="translate(-31.582 -18.622)"/>
      <path id="Path_7" data-name="Path 7" class="cls-2" d="M112.2,35.93l-4.1-13.361H108c.15,2.726.217,4.532.217,5.435V35.93H104.99V18.89h4.916l4.03,13.027H114l4.281-13.027H123.2V35.93h-3.361V27.87c0-.385,0-.819.017-1.321s.067-1.823.15-3.963h-.1l-4.4,13.344H112.2Z" transform="translate(-24.289 -18.622)"/>
      <path id="Path_8" data-name="Path 8" class="cls-2" d="M127.86,35.93V18.89h3.612V35.93H127.86Z" transform="translate(-8.915 -18.622)"/>
      <path id="Path_9" data-name="Path 9" class="cls-2" d="M147.2,24.208a5.213,5.213,0,0,1-1.722,4.214,7.367,7.367,0,0,1-4.883,1.455h-1.555V35.93H135.43V18.89h5.435a7.239,7.239,0,0,1,4.716,1.338A4.843,4.843,0,0,1,147.2,24.208Zm-8.144,2.709h1.187a3.994,3.994,0,0,0,2.492-.652,2.288,2.288,0,0,0,.819-1.923,2.377,2.377,0,0,0-.686-1.873,3.277,3.277,0,0,0-2.174-.6h-1.639v5.05Z" transform="translate(-3.827 -18.622)"/>
      <path id="Path_10" data-name="Path 10" class="cls-2" d="M157.727,31.285a4.4,4.4,0,0,1-1.656,3.629,7.187,7.187,0,0,1-4.615,1.321,10.741,10.741,0,0,1-4.816-1.02V31.87a20.128,20.128,0,0,0,2.926,1.087,8.347,8.347,0,0,0,2.191.318,3.121,3.121,0,0,0,1.823-.451,1.566,1.566,0,0,0,.635-1.354,1.476,1.476,0,0,0-.284-.886,3.007,3.007,0,0,0-.819-.752q-.552-.351-2.207-1.154a10.316,10.316,0,0,1-2.341-1.4,5.423,5.423,0,0,1-1.254-1.572,4.426,4.426,0,0,1-.468-2.09,4.441,4.441,0,0,1,1.538-3.562,6.333,6.333,0,0,1,4.231-1.288,9.8,9.8,0,0,1,2.542.318,18.346,18.346,0,0,1,2.525.886l-1.171,2.809a17.709,17.709,0,0,0-2.257-.786,7.207,7.207,0,0,0-1.756-.217,2.326,2.326,0,0,0-1.572.485,1.577,1.577,0,0,0-.552,1.254,1.521,1.521,0,0,0,.217.836,2.5,2.5,0,0,0,.7.686,21.38,21.38,0,0,0,2.291,1.187,9.324,9.324,0,0,1,3.278,2.291A4.436,4.436,0,0,1,157.727,31.285Z" transform="translate(3.709 -18.71)"/>
      <path id="Path_11" data-name="Path 11" class="cls-2" d="M171.886,18.9v11.02a6.339,6.339,0,0,1-.853,3.311,5.435,5.435,0,0,1-2.441,2.174,8.809,8.809,0,0,1-3.779.752,7.218,7.218,0,0,1-5.1-1.689,6.006,6.006,0,0,1-1.823-4.615V18.88h3.6V29.315a4.43,4.43,0,0,0,.786,2.893,3.293,3.293,0,0,0,2.625.92,3.223,3.223,0,0,0,2.575-.92,4.382,4.382,0,0,0,.8-2.91V18.9Z" transform="translate(11.271 -18.629)"/>
      <path id="Path_12" data-name="Path 12" class="cls-2" d="M178.817,35.93l-4.1-13.361h-.1c.151,2.726.217,4.532.217,5.435V35.93H171.61V18.89h4.916l4.03,13.027h.067L184.9,18.89h4.916V35.93h-3.361V27.87c0-.385,0-.819.017-1.321s.067-1.823.15-3.963h-.1l-4.4,13.344h-3.311Z" transform="translate(20.494 -18.622)"/>
    </g>
    <g id="Group_3" data-name="Group 3" transform="translate(87.168 53.983)">
      <path id="Path_13" data-name="Path 13" class="cls-2" d="M64.422,54.28V64.648H56.73V36.17h9.331q11.614,0,11.605,8.411,0,4.941-4.833,7.659l8.294,12.408H72.4L66.379,54.28Zm0-5.786H65.86c2.692,0,4.03-1.187,4.03-3.562,0-1.956-1.321-2.943-3.946-2.943H64.422v6.5Z" transform="translate(-56.73 -35.718)"/>
      <path id="Path_14" data-name="Path 14" class="cls-2" d="M89.776,64.631H72.87V36.17H89.776v6.17H80.562v4.482H89.09v6.17H80.562V58.36h9.214Z" transform="translate(-45.88 -35.718)"/>
      <path id="Path_15" data-name="Path 15" class="cls-2" d="M105.113,56.161a8.445,8.445,0,0,1-1.338,4.7,8.789,8.789,0,0,1-3.88,3.194,14.46,14.46,0,0,1-5.936,1.137,23.906,23.906,0,0,1-4.766-.4A18.212,18.212,0,0,1,85.18,63.4V56.545A22.725,22.725,0,0,0,89.762,58.3a17.3,17.3,0,0,0,4.364.635,4.2,4.2,0,0,0,2.508-.6,1.824,1.824,0,0,0,.8-1.522,1.646,1.646,0,0,0-.318-1.02,3.826,3.826,0,0,0-1.037-.886,41.36,41.36,0,0,0-3.8-1.823,17.729,17.729,0,0,1-4.181-2.458A7.408,7.408,0,0,1,86.05,47.9a9.272,9.272,0,0,1-.669-3.645,7.309,7.309,0,0,1,2.859-6.137Q91.1,35.91,96.116,35.91a22.2,22.2,0,0,1,9.013,2.04l-2.358,5.936a17.059,17.059,0,0,0-6.89-1.823,3.555,3.555,0,0,0-2.174.518,1.6,1.6,0,0,0-.686,1.3,1.9,1.9,0,0,0,.87,1.5,32.67,32.67,0,0,0,4.7,2.408,12.945,12.945,0,0,1,5.117,3.562A8.033,8.033,0,0,1,105.113,56.161Z" transform="translate(-37.606 -35.893)"/>
      <path id="Path_16" data-name="Path 16" class="cls-2" d="M113.129,64.631h-7.692V42.458H98.48V36.17h21.572v6.288h-6.94V64.631Z" transform="translate(-28.665 -35.719)"/>
      <path id="Path_17" data-name="Path 17" class="cls-2" d="M140.882,50.549q0,7.174-3.528,10.92c-2.358,2.492-5.786,3.746-10.318,3.746q-6.7,0-10.267-3.762c-2.375-2.508-3.579-6.154-3.579-10.953,0-4.732,1.187-8.361,3.562-10.853s5.819-3.746,10.334-3.746q6.8,0,10.3,3.712C139.728,42.087,140.882,45.733,140.882,50.549Zm-19.582,0q0,8.252,5.752,8.261a4.938,4.938,0,0,0,4.331-2.007c.936-1.338,1.4-3.428,1.4-6.254,0-2.843-.485-4.95-1.438-6.3a4.889,4.889,0,0,0-4.281-2.04Q121.3,42.2,121.3,50.549Z" transform="translate(-18.777 -35.9)"/>
      <path id="Path_18" data-name="Path 18" class="cls-2" d="M140.522,54.28V64.648H132.83V36.17h9.331q11.614,0,11.605,8.411,0,4.941-4.833,7.659l8.294,12.408H148.5L142.462,54.28h-1.94Zm0-5.786h1.438c2.692,0,4.03-1.187,4.03-3.562,0-1.956-1.321-2.943-3.946-2.943h-1.522Z" transform="translate(-5.575 -35.718)"/>
      <path id="Path_19" data-name="Path 19" class="cls-2" d="M167.675,64.685l-1.4-5.334h-9.247l-1.438,5.334H147.14l9.3-28.595H166.7l9.415,28.595Zm-3.01-11.639-1.221-4.682c-.284-1.037-.635-2.375-1.037-4.03s-.686-2.826-.8-3.545c-.117.669-.351,1.756-.686,3.278-.351,1.522-1.1,4.515-2.291,8.98Z" transform="translate(4.045 -35.772)"/>
      <path id="Path_20" data-name="Path 20" class="cls-2" d="M193.4,64.631H183.313l-10.4-20.067h-.167c.251,3.16.368,5.568.368,7.224V64.614H166.29V36.17h10.05l10.368,19.782h.117c-.184-2.876-.268-5.167-.268-6.906V36.17h6.856V64.631Z" transform="translate(16.918 -35.718)"/>
    </g>
  </g>
</svg>
